# MagicaVoxel @ Ephtracy

# group
o 

# material
mtllib boostBassdrop.mtl
usemtl palette

# normals
vn -1 0 0
vn 1 0 0
vn 0 0 1
vn 0 0 -1
vn 0 -1 0
vn 0 1 0

# texcoords
vt 0.900391 0.5
vt 0.974609 0.5
vt 0.994141 0.5

# verts
v 0 2.6 0
v 0 2.6 -0.3
v 0 2.7 0
v 0 2.7 -0.3
v 0.1 2.5 0
v 0.1 2.5 -0.3
v 0.1 2.6 0
v 0.1 2.6 -0.3
v 0.1 2.7 0
v 0.1 2.7 -0.3
v 0.1 2.8 0
v 0.1 2.8 -0.3
v 0.2 2.4 0
v 0.2 2.4 -0.3
v 0.2 2.5 0
v 0.2 2.5 -0.3
v 0.2 2.8 0
v 0.2 2.8 -0.3
v 0.2 2.9 0
v 0.2 2.9 -0.3
v 0.4 2.1 0
v 0.4 2.1 -0.3
v 0.4 2.4 0
v 0.4 2.4 -0.3
v 0.5 2 0
v 0.5 2 -0.3
v 0.5 2.1 0
v 0.5 2.1 -0.3
v 1 2.3 0
v 1 2.3 -0.3
v 1 2.4 0
v 1 2.4 -0.3
v 1 2.9 0
v 1 2.9 -0.3
v 1 3 0
v 1 3 -0.3
v 1.1 2.2 0
v 1.1 2.2 -0.3
v 1.1 2.3 0
v 1.1 2.3 -0.3
v 1.1 3 0
v 1.1 3 -0.3
v 1.1 3.1 0
v 1.1 3.1 -0.3
v 1.2 2.1 0
v 1.2 2.1 -0.3
v 1.2 2.2 0
v 1.2 2.2 -0.3
v 1.2 3.1 0
v 1.2 3.1 -0.3
v 1.2 3.2 0
v 1.2 3.2 -0.3
v 1.5 2.3 -0.1
v 1.5 2.3 -0.2
v 1.5 2.4 -0.1
v 1.5 2.4 -0.2
v 1.5 2.6 -0.1
v 1.5 2.6 -0.2
v 1.5 2.7 -0.1
v 1.5 2.7 -0.2
v 1.5 2.9 -0.1
v 1.5 2.9 -0.2
v 1.5 3 -0.1
v 1.5 3 -0.2
v 1.6 2.2 -0.1
v 1.6 2.2 -0.2
v 1.6 2.3 -0.1
v 1.6 2.3 -0.2
v 1.6 3 -0.1
v 1.6 3 -0.2
v 1.6 3.1 -0.1
v 1.6 3.1 -0.2
v 1.7 2.1 -0.1
v 1.7 2.1 -0.2
v 1.7 2.2 -0.1
v 1.7 2.2 -0.2
v 1.7 2.6 -0.1
v 1.7 2.6 -0.2
v 1.7 2.7 -0.1
v 1.7 2.7 -0.2
v 1.7 3.1 -0.1
v 1.7 3.1 -0.2
v 1.7 3.2 -0.1
v 1.7 3.2 -0.2
v 1.9 2.6 -0.1
v 1.9 2.6 -0.2
v 1.9 2.7 -0.1
v 1.9 2.7 -0.2
v 0.6 2 0
v 0.6 2 -0.3
v 0.6 2.1 0
v 0.6 2.1 -0.3
v 0.7 2.1 0
v 0.7 2.1 -0.3
v 0.7 2.4 0
v 0.7 2.4 -0.3
v 1.4 2.1 0
v 1.4 2.1 -0.3
v 1.4 3.2 0
v 1.4 3.2 -0.3
v 1.6 2.3 -0.1
v 1.6 2.3 -0.2
v 1.6 2.4 -0.1
v 1.6 2.4 -0.2
v 1.6 2.6 -0.1
v 1.6 2.6 -0.2
v 1.6 2.7 -0.1
v 1.6 2.7 -0.2
v 1.6 2.9 -0.1
v 1.6 2.9 -0.2
v 1.6 3 -0.1
v 1.6 3 -0.2
v 1.7 2.2 -0.1
v 1.7 2.2 -0.2
v 1.7 2.3 -0.1
v 1.7 2.3 -0.2
v 1.7 3 -0.1
v 1.7 3 -0.2
v 1.7 3.1 -0.1
v 1.7 3.1 -0.2
v 1.8 2.1 -0.1
v 1.8 2.1 -0.2
v 1.8 2.2 -0.1
v 1.8 2.2 -0.2
v 1.8 2.6 -0.1
v 1.8 2.6 -0.2
v 1.8 2.7 -0.1
v 1.8 2.7 -0.2
v 1.8 3.1 -0.1
v 1.8 3.1 -0.2
v 1.8 3.2 -0.1
v 1.8 3.2 -0.2
v 2 2.6 -0.1
v 2 2.6 -0.2
v 2 2.7 -0.1
v 2 2.7 -0.2
v 0 2.6 0
v 0 2.7 0
v 0.1 2.5 0
v 0.1 2.6 0
v 0.1 2.7 0
v 0.1 2.8 0
v 0.2 2.4 0
v 0.2 2.5 0
v 0.2 2.6 0
v 0.2 2.7 0
v 0.2 2.8 0
v 0.2 2.9 0
v 0.4 2.1 0
v 0.4 2.4 0
v 0.4 2.5 0
v 0.5 2 0
v 0.5 2.1 0
v 0.5 2.4 0
v 0.6 2 0
v 0.6 2.1 0
v 0.6 2.4 0
v 0.7 2.1 0
v 0.7 2.4 0
v 0.7 2.5 0
v 0.9 2.5 0
v 0.9 2.8 0
v 1 2.3 0
v 1 2.4 0
v 1 2.5 0
v 1 2.8 0
v 1 2.9 0
v 1 3 0
v 1.1 2.2 0
v 1.1 2.3 0
v 1.1 2.4 0
v 1.1 2.9 0
v 1.1 3 0
v 1.1 3.1 0
v 1.2 2.1 0
v 1.2 2.2 0
v 1.2 2.3 0
v 1.2 3 0
v 1.2 3.1 0
v 1.2 3.2 0
v 1.3 2.2 0
v 1.3 3.1 0
v 1.4 2.1 0
v 1.4 3.2 0
v 1.5 2.3 -0.1
v 1.5 2.4 -0.1
v 1.5 2.6 -0.1
v 1.5 2.7 -0.1
v 1.5 2.9 -0.1
v 1.5 3 -0.1
v 1.6 2.2 -0.1
v 1.6 2.3 -0.1
v 1.6 2.4 -0.1
v 1.6 2.6 -0.1
v 1.6 2.7 -0.1
v 1.6 2.9 -0.1
v 1.6 3 -0.1
v 1.6 3.1 -0.1
v 1.7 2.1 -0.1
v 1.7 2.2 -0.1
v 1.7 2.3 -0.1
v 1.7 2.6 -0.1
v 1.7 2.7 -0.1
v 1.7 3 -0.1
v 1.7 3.1 -0.1
v 1.7 3.2 -0.1
v 1.8 2.1 -0.1
v 1.8 2.2 -0.1
v 1.8 2.6 -0.1
v 1.8 2.7 -0.1
v 1.8 3.1 -0.1
v 1.8 3.2 -0.1
v 1.9 2.6 -0.1
v 1.9 2.7 -0.1
v 2 2.6 -0.1
v 2 2.7 -0.1
v 1.5 2.3 -0.2
v 1.5 2.4 -0.2
v 1.5 2.6 -0.2
v 1.5 2.7 -0.2
v 1.5 2.9 -0.2
v 1.5 3 -0.2
v 1.6 2.2 -0.2
v 1.6 2.3 -0.2
v 1.6 2.4 -0.2
v 1.6 2.6 -0.2
v 1.6 2.7 -0.2
v 1.6 2.9 -0.2
v 1.6 3 -0.2
v 1.6 3.1 -0.2
v 1.7 2.1 -0.2
v 1.7 2.2 -0.2
v 1.7 2.3 -0.2
v 1.7 2.6 -0.2
v 1.7 2.7 -0.2
v 1.7 3 -0.2
v 1.7 3.1 -0.2
v 1.7 3.2 -0.2
v 1.8 2.1 -0.2
v 1.8 2.2 -0.2
v 1.8 2.6 -0.2
v 1.8 2.7 -0.2
v 1.8 3.1 -0.2
v 1.8 3.2 -0.2
v 1.9 2.6 -0.2
v 1.9 2.7 -0.2
v 2 2.6 -0.2
v 2 2.7 -0.2
v 0 2.6 -0.3
v 0 2.7 -0.3
v 0.1 2.5 -0.3
v 0.1 2.6 -0.3
v 0.1 2.7 -0.3
v 0.1 2.8 -0.3
v 0.2 2.4 -0.3
v 0.2 2.5 -0.3
v 0.2 2.6 -0.3
v 0.2 2.7 -0.3
v 0.2 2.8 -0.3
v 0.2 2.9 -0.3
v 0.4 2.1 -0.3
v 0.4 2.4 -0.3
v 0.4 2.5 -0.3
v 0.5 2 -0.3
v 0.5 2.1 -0.3
v 0.5 2.4 -0.3
v 0.6 2 -0.3
v 0.6 2.1 -0.3
v 0.6 2.4 -0.3
v 0.7 2.1 -0.3
v 0.7 2.4 -0.3
v 0.7 2.5 -0.3
v 0.9 2.5 -0.3
v 0.9 2.8 -0.3
v 1 2.3 -0.3
v 1 2.4 -0.3
v 1 2.5 -0.3
v 1 2.8 -0.3
v 1 2.9 -0.3
v 1 3 -0.3
v 1.1 2.2 -0.3
v 1.1 2.3 -0.3
v 1.1 2.4 -0.3
v 1.1 2.9 -0.3
v 1.1 3 -0.3
v 1.1 3.1 -0.3
v 1.2 2.1 -0.3
v 1.2 2.2 -0.3
v 1.2 2.3 -0.3
v 1.2 3 -0.3
v 1.2 3.1 -0.3
v 1.2 3.2 -0.3
v 1.3 2.2 -0.3
v 1.3 3.1 -0.3
v 1.4 2.1 -0.3
v 1.4 3.2 -0.3
v 0.5 2 0
v 0.6 2 0
v 0.5 2 -0.3
v 0.6 2 -0.3
v 0.4 2.1 0
v 0.5 2.1 0
v 0.6 2.1 0
v 0.7 2.1 0
v 1.2 2.1 0
v 1.4 2.1 0
v 1.7 2.1 -0.1
v 1.8 2.1 -0.1
v 1.7 2.1 -0.2
v 1.8 2.1 -0.2
v 0.4 2.1 -0.3
v 0.5 2.1 -0.3
v 0.6 2.1 -0.3
v 0.7 2.1 -0.3
v 1.2 2.1 -0.3
v 1.4 2.1 -0.3
v 1.1 2.2 0
v 1.2 2.2 0
v 1.6 2.2 -0.1
v 1.7 2.2 -0.1
v 1.6 2.2 -0.2
v 1.7 2.2 -0.2
v 1.1 2.2 -0.3
v 1.2 2.2 -0.3
v 1 2.3 0
v 1.1 2.3 0
v 1.5 2.3 -0.1
v 1.6 2.3 -0.1
v 1.5 2.3 -0.2
v 1.6 2.3 -0.2
v 1 2.3 -0.3
v 1.1 2.3 -0.3
v 0.2 2.4 0
v 0.4 2.4 0
v 0.7 2.4 0
v 1 2.4 0
v 0.2 2.4 -0.3
v 0.4 2.4 -0.3
v 0.7 2.4 -0.3
v 1 2.4 -0.3
v 0.1 2.5 0
v 0.2 2.5 0
v 0.1 2.5 -0.3
v 0.2 2.5 -0.3
v 0 2.6 0
v 0.1 2.6 0
v 1.5 2.6 -0.1
v 1.6 2.6 -0.1
v 1.7 2.6 -0.1
v 1.8 2.6 -0.1
v 1.9 2.6 -0.1
v 2 2.6 -0.1
v 1.5 2.6 -0.2
v 1.6 2.6 -0.2
v 1.7 2.6 -0.2
v 1.8 2.6 -0.2
v 1.9 2.6 -0.2
v 2 2.6 -0.2
v 0 2.6 -0.3
v 0.1 2.6 -0.3
v 1.5 2.9 -0.1
v 1.6 2.9 -0.1
v 1.5 2.9 -0.2
v 1.6 2.9 -0.2
v 1.6 3 -0.1
v 1.7 3 -0.1
v 1.6 3 -0.2
v 1.7 3 -0.2
v 1.7 3.1 -0.1
v 1.8 3.1 -0.1
v 1.7 3.1 -0.2
v 1.8 3.1 -0.2
v 1.7 2.2 -0.1
v 1.8 2.2 -0.1
v 1.7 2.2 -0.2
v 1.8 2.2 -0.2
v 1.6 2.3 -0.1
v 1.7 2.3 -0.1
v 1.6 2.3 -0.2
v 1.7 2.3 -0.2
v 1.5 2.4 -0.1
v 1.6 2.4 -0.1
v 1.5 2.4 -0.2
v 1.6 2.4 -0.2
v 0 2.7 0
v 0.1 2.7 0
v 1.5 2.7 -0.1
v 1.6 2.7 -0.1
v 1.7 2.7 -0.1
v 1.8 2.7 -0.1
v 1.9 2.7 -0.1
v 2 2.7 -0.1
v 1.5 2.7 -0.2
v 1.6 2.7 -0.2
v 1.7 2.7 -0.2
v 1.8 2.7 -0.2
v 1.9 2.7 -0.2
v 2 2.7 -0.2
v 0 2.7 -0.3
v 0.1 2.7 -0.3
v 0.1 2.8 0
v 0.2 2.8 0
v 0.1 2.8 -0.3
v 0.2 2.8 -0.3
v 0.2 2.9 0
v 1 2.9 0
v 0.2 2.9 -0.3
v 1 2.9 -0.3
v 1 3 0
v 1.1 3 0
v 1.5 3 -0.1
v 1.6 3 -0.1
v 1.5 3 -0.2
v 1.6 3 -0.2
v 1 3 -0.3
v 1.1 3 -0.3
v 1.1 3.1 0
v 1.2 3.1 0
v 1.6 3.1 -0.1
v 1.7 3.1 -0.1
v 1.6 3.1 -0.2
v 1.7 3.1 -0.2
v 1.1 3.1 -0.3
v 1.2 3.1 -0.3
v 1.2 3.2 0
v 1.4 3.2 0
v 1.7 3.2 -0.1
v 1.8 3.2 -0.1
v 1.7 3.2 -0.2
v 1.8 3.2 -0.2
v 1.2 3.2 -0.3
v 1.4 3.2 -0.3

# faces
f 3/3/1 2/3/1 1/3/1
f 4/3/1 2/3/1 3/3/1
f 7/3/1 6/3/1 5/3/1
f 8/3/1 6/3/1 7/3/1
f 11/3/1 10/3/1 9/3/1
f 12/3/1 10/3/1 11/3/1
f 15/3/1 14/3/1 13/3/1
f 16/3/1 14/3/1 15/3/1
f 19/3/1 18/3/1 17/3/1
f 20/3/1 18/3/1 19/3/1
f 23/3/1 22/3/1 21/3/1
f 24/3/1 22/3/1 23/3/1
f 27/3/1 26/3/1 25/3/1
f 28/3/1 26/3/1 27/3/1
f 31/3/1 30/3/1 29/3/1
f 32/3/1 30/3/1 31/3/1
f 35/3/1 34/3/1 33/3/1
f 36/3/1 34/3/1 35/3/1
f 39/3/1 38/3/1 37/3/1
f 40/3/1 38/3/1 39/3/1
f 43/3/1 42/3/1 41/3/1
f 44/3/1 42/3/1 43/3/1
f 47/3/1 46/3/1 45/3/1
f 48/3/1 46/3/1 47/3/1
f 51/3/1 50/3/1 49/3/1
f 52/3/1 50/3/1 51/3/1
f 55/2/1 54/2/1 53/2/1
f 56/2/1 54/2/1 55/2/1
f 59/2/1 58/2/1 57/2/1
f 60/2/1 58/2/1 59/2/1
f 63/2/1 62/2/1 61/2/1
f 64/2/1 62/2/1 63/2/1
f 67/2/1 66/2/1 65/2/1
f 68/2/1 66/2/1 67/2/1
f 71/2/1 70/2/1 69/2/1
f 72/2/1 70/2/1 71/2/1
f 75/2/1 74/2/1 73/2/1
f 76/2/1 74/2/1 75/2/1
f 79/2/1 78/2/1 77/2/1
f 80/2/1 78/2/1 79/2/1
f 83/2/1 82/2/1 81/2/1
f 84/2/1 82/2/1 83/2/1
f 87/2/1 86/2/1 85/2/1
f 88/2/1 86/2/1 87/2/1
f 89/3/2 90/3/2 91/3/2
f 91/3/2 90/3/2 92/3/2
f 93/3/2 94/3/2 95/3/2
f 95/3/2 94/3/2 96/3/2
f 97/3/2 98/3/2 99/3/2
f 99/3/2 98/3/2 100/3/2
f 101/2/2 102/2/2 103/2/2
f 103/2/2 102/2/2 104/2/2
f 105/2/2 106/2/2 107/2/2
f 107/2/2 106/2/2 108/2/2
f 109/2/2 110/2/2 111/2/2
f 111/2/2 110/2/2 112/2/2
f 113/2/2 114/2/2 115/2/2
f 115/2/2 114/2/2 116/2/2
f 117/2/2 118/2/2 119/2/2
f 119/2/2 118/2/2 120/2/2
f 121/2/2 122/2/2 123/2/2
f 123/2/2 122/2/2 124/2/2
f 125/2/2 126/2/2 127/2/2
f 127/2/2 126/2/2 128/2/2
f 129/2/2 130/2/2 131/2/2
f 131/2/2 130/2/2 132/2/2
f 133/2/2 134/2/2 135/2/2
f 135/2/2 134/2/2 136/2/2
f 140/3/3 138/3/3 137/3/3
f 141/3/3 138/3/3 140/3/3
f 144/3/3 140/3/3 139/3/3
f 145/1/3 141/1/3 140/1/3
f 145/3/3 140/3/3 144/3/3
f 146/3/3 142/3/3 141/3/3
f 146/1/3 141/1/3 145/1/3
f 147/3/3 142/3/3 146/3/3
f 150/3/3 144/3/3 143/3/3
f 151/1/3 145/1/3 144/1/3
f 151/1/3 146/1/3 145/1/3
f 151/3/3 144/3/3 150/3/3
f 151/1/3 147/1/3 146/1/3
f 153/3/3 150/3/3 149/3/3
f 154/1/3 151/1/3 150/1/3
f 154/3/3 150/3/3 153/3/3
f 155/3/3 153/3/3 152/3/3
f 156/1/3 154/1/3 153/1/3
f 156/3/3 153/3/3 155/3/3
f 157/1/3 151/1/3 154/1/3
f 157/1/3 154/1/3 156/1/3
f 158/3/3 157/3/3 156/3/3
f 159/1/3 151/1/3 157/1/3
f 159/3/3 157/3/3 158/3/3
f 160/1/3 147/1/3 151/1/3
f 160/1/3 151/1/3 159/1/3
f 161/1/3 147/1/3 160/1/3
f 161/3/3 160/3/3 159/3/3
f 162/3/3 148/3/3 147/3/3
f 162/1/3 147/1/3 161/1/3
f 164/3/3 161/3/3 159/3/3
f 165/2/3 162/2/3 161/2/3
f 165/3/3 161/3/3 164/3/3
f 166/3/3 148/3/3 162/3/3
f 166/2/3 162/2/3 165/2/3
f 167/3/3 148/3/3 166/3/3
f 170/3/3 164/3/3 163/3/3
f 171/2/3 165/2/3 164/2/3
f 171/2/3 166/2/3 165/2/3
f 171/3/3 164/3/3 170/3/3
f 171/2/3 167/2/3 166/2/3
f 172/3/3 168/3/3 167/3/3
f 172/2/3 167/2/3 171/2/3
f 173/3/3 168/3/3 172/3/3
f 176/3/3 170/3/3 169/3/3
f 177/2/3 171/2/3 170/2/3
f 177/2/3 172/2/3 171/2/3
f 177/3/3 170/3/3 176/3/3
f 177/2/3 173/2/3 172/2/3
f 178/3/3 174/3/3 173/3/3
f 178/2/3 173/2/3 177/2/3
f 179/3/3 174/3/3 178/3/3
f 181/2/3 177/2/3 176/2/3
f 181/3/3 176/3/3 175/3/3
f 181/2/3 179/2/3 178/2/3
f 181/2/3 178/2/3 177/2/3
f 182/3/3 180/3/3 179/3/3
f 182/2/3 179/2/3 181/2/3
f 183/3/3 181/3/3 175/3/3
f 183/3/3 182/3/3 181/3/3
f 184/3/3 180/3/3 182/3/3
f 184/3/3 182/3/3 183/3/3
f 192/2/3 186/2/3 185/2/3
f 193/2/3 186/2/3 192/2/3
f 194/2/3 188/2/3 187/2/3
f 195/2/3 188/2/3 194/2/3
f 196/2/3 190/2/3 189/2/3
f 197/2/3 190/2/3 196/2/3
f 200/2/3 192/2/3 191/2/3
f 201/2/3 192/2/3 200/2/3
f 204/2/3 198/2/3 197/2/3
f 205/2/3 198/2/3 204/2/3
f 207/2/3 200/2/3 199/2/3
f 208/2/3 200/2/3 207/2/3
f 209/2/3 203/2/3 202/2/3
f 210/2/3 203/2/3 209/2/3
f 211/2/3 206/2/3 205/2/3
f 212/2/3 206/2/3 211/2/3
f 215/2/3 214/2/3 213/2/3
f 216/2/3 214/2/3 215/2/3
f 217/2/4 218/2/4 224/2/4
f 224/2/4 218/2/4 225/2/4
f 219/2/4 220/2/4 226/2/4
f 226/2/4 220/2/4 227/2/4
f 221/2/4 222/2/4 228/2/4
f 228/2/4 222/2/4 229/2/4
f 223/2/4 224/2/4 232/2/4
f 232/2/4 224/2/4 233/2/4
f 229/2/4 230/2/4 236/2/4
f 236/2/4 230/2/4 237/2/4
f 231/2/4 232/2/4 239/2/4
f 239/2/4 232/2/4 240/2/4
f 234/2/4 235/2/4 241/2/4
f 241/2/4 235/2/4 242/2/4
f 237/2/4 238/2/4 243/2/4
f 243/2/4 238/2/4 244/2/4
f 245/2/4 246/2/4 247/2/4
f 247/2/4 246/2/4 248/2/4
f 249/3/4 250/3/4 252/3/4
f 252/3/4 250/3/4 253/3/4
f 251/3/4 252/3/4 256/3/4
f 252/1/4 253/1/4 257/1/4
f 256/3/4 252/3/4 257/3/4
f 253/3/4 254/3/4 258/3/4
f 257/1/4 253/1/4 258/1/4
f 258/3/4 254/3/4 259/3/4
f 255/3/4 256/3/4 262/3/4
f 256/1/4 257/1/4 263/1/4
f 257/1/4 258/1/4 263/1/4
f 262/3/4 256/3/4 263/3/4
f 258/1/4 259/1/4 263/1/4
f 261/3/4 262/3/4 265/3/4
f 262/1/4 263/1/4 266/1/4
f 265/3/4 262/3/4 266/3/4
f 264/3/4 265/3/4 267/3/4
f 265/1/4 266/1/4 268/1/4
f 267/3/4 265/3/4 268/3/4
f 266/1/4 263/1/4 269/1/4
f 268/1/4 266/1/4 269/1/4
f 268/3/4 269/3/4 270/3/4
f 269/1/4 263/1/4 271/1/4
f 270/3/4 269/3/4 271/3/4
f 263/1/4 259/1/4 272/1/4
f 271/1/4 263/1/4 272/1/4
f 272/1/4 259/1/4 273/1/4
f 271/3/4 272/3/4 273/3/4
f 259/3/4 260/3/4 274/3/4
f 273/1/4 259/1/4 274/1/4
f 271/3/4 273/3/4 276/3/4
f 273/2/4 274/2/4 277/2/4
f 276/3/4 273/3/4 277/3/4
f 274/3/4 260/3/4 278/3/4
f 277/2/4 274/2/4 278/2/4
f 278/3/4 260/3/4 279/3/4
f 275/3/4 276/3/4 282/3/4
f 276/2/4 277/2/4 283/2/4
f 277/2/4 278/2/4 283/2/4
f 282/3/4 276/3/4 283/3/4
f 278/2/4 279/2/4 283/2/4
f 279/3/4 280/3/4 284/3/4
f 283/2/4 279/2/4 284/2/4
f 284/3/4 280/3/4 285/3/4
f 281/3/4 282/3/4 288/3/4
f 282/2/4 283/2/4 289/2/4
f 283/2/4 284/2/4 289/2/4
f 288/3/4 282/3/4 289/3/4
f 284/2/4 285/2/4 289/2/4
f 285/3/4 286/3/4 290/3/4
f 289/2/4 285/2/4 290/2/4
f 290/3/4 286/3/4 291/3/4
f 288/2/4 289/2/4 293/2/4
f 287/3/4 288/3/4 293/3/4
f 290/2/4 291/2/4 293/2/4
f 289/2/4 290/2/4 293/2/4
f 291/3/4 292/3/4 294/3/4
f 293/2/4 291/2/4 294/2/4
f 287/3/4 293/3/4 295/3/4
f 293/3/4 294/3/4 295/3/4
f 294/3/4 292/3/4 296/3/4
f 295/3/4 294/3/4 296/3/4
f 299/3/5 298/3/5 297/3/5
f 300/3/5 298/3/5 299/3/5
f 309/2/5 308/2/5 307/2/5
f 310/2/5 308/2/5 309/2/5
f 311/3/5 302/3/5 301/3/5
f 312/3/5 302/3/5 311/3/5
f 313/3/5 304/3/5 303/3/5
f 314/3/5 304/3/5 313/3/5
f 315/3/5 306/3/5 305/3/5
f 316/3/5 306/3/5 315/3/5
f 321/2/5 320/2/5 319/2/5
f 322/2/5 320/2/5 321/2/5
f 323/3/5 318/3/5 317/3/5
f 324/3/5 318/3/5 323/3/5
f 329/2/5 328/2/5 327/2/5
f 330/2/5 328/2/5 329/2/5
f 331/3/5 326/3/5 325/3/5
f 332/3/5 326/3/5 331/3/5
f 337/3/5 334/3/5 333/3/5
f 338/3/5 334/3/5 337/3/5
f 339/3/5 336/3/5 335/3/5
f 340/3/5 336/3/5 339/3/5
f 343/3/5 342/3/5 341/3/5
f 344/3/5 342/3/5 343/3/5
f 353/2/5 348/2/5 347/2/5
f 354/2/5 348/2/5 353/2/5
f 355/2/5 350/2/5 349/2/5
f 356/2/5 350/2/5 355/2/5
f 357/2/5 352/2/5 351/2/5
f 358/2/5 352/2/5 357/2/5
f 359/3/5 346/3/5 345/3/5
f 360/3/5 346/3/5 359/3/5
f 363/2/5 362/2/5 361/2/5
f 364/2/5 362/2/5 363/2/5
f 367/2/5 366/2/5 365/2/5
f 368/2/5 366/2/5 367/2/5
f 371/2/5 370/2/5 369/2/5
f 372/2/5 370/2/5 371/2/5
f 373/2/6 374/2/6 375/2/6
f 375/2/6 374/2/6 376/2/6
f 377/2/6 378/2/6 379/2/6
f 379/2/6 378/2/6 380/2/6
f 381/2/6 382/2/6 383/2/6
f 383/2/6 382/2/6 384/2/6
f 387/2/6 388/2/6 393/2/6
f 393/2/6 388/2/6 394/2/6
f 389/2/6 390/2/6 395/2/6
f 395/2/6 390/2/6 396/2/6
f 391/2/6 392/2/6 397/2/6
f 397/2/6 392/2/6 398/2/6
f 385/3/6 386/3/6 399/3/6
f 399/3/6 386/3/6 400/3/6
f 401/3/6 402/3/6 403/3/6
f 403/3/6 402/3/6 404/3/6
f 405/3/6 406/3/6 407/3/6
f 407/3/6 406/3/6 408/3/6
f 411/2/6 412/2/6 413/2/6
f 413/2/6 412/2/6 414/2/6
f 409/3/6 410/3/6 415/3/6
f 415/3/6 410/3/6 416/3/6
f 419/2/6 420/2/6 421/2/6
f 421/2/6 420/2/6 422/2/6
f 417/3/6 418/3/6 423/3/6
f 423/3/6 418/3/6 424/3/6
f 427/2/6 428/2/6 429/2/6
f 429/2/6 428/2/6 430/2/6
f 425/3/6 426/3/6 431/3/6
f 431/3/6 426/3/6 432/3/6
