# MagicaVoxel @ Ephtracy

# group
o 

# material
mtllib boostDoublemoney.mtl
usemtl palette

# normals
vn -1 0 0
vn 1 0 0
vn 0 0 1
vn 0 0 -1
vn 0 -1 0
vn 0 1 0

# texcoords
vt 0.888672 0.5
vt 0.892578 0.5
vt 0.896484 0.5
vt 0.958984 0.5
vt 0.990234 0.5
vt 0.994141 0.5

# verts
v 0 2.7 0
v 0 2.7 -0.3
v 0 3.3 0
v 0 3.3 -0.3
v 0.1 2.6 0
v 0.1 2.6 -0.3
v 0.1 2.7 0
v 0.1 2.7 -0.3
v 0.1 3.3 0
v 0.1 3.3 -0.3
v 0.1 3.4 0
v 0.1 3.4 -0.3
v 0.2 2.5 0
v 0.2 2.5 -0.3
v 0.2 2.6 0
v 0.2 2.6 -0.3
v 0.2 3.4 0
v 0.2 3.4 -0.3
v 0.2 3.5 0
v 0.2 3.5 -0.3
v 0.3 2.4 0
v 0.3 2.4 -0.3
v 0.3 2.5 0
v 0.3 2.5 -0.3
v 0.3 3.5 0
v 0.3 3.5 -0.3
v 0.3 3.6 0
v 0.3 3.6 -0.3
v 0.4 2.3 -0.2
v 0.4 2.3 -0.4
v 0.4 2.4 -0.2
v 0.4 2.4 -0.3
v 0.4 2.5 -0.3
v 0.4 2.6 -0.3
v 0.4 2.9 -0.3
v 0.4 2.9 -0.4
v 0.5 2.2 -0.2
v 0.5 2.2 -0.4
v 0.5 2.3 -0.2
v 0.5 2.3 -0.4
v 0.5 2.9 -0.3
v 0.5 2.9 -0.4
v 0.5 3 -0.3
v 0.5 3 -0.4
v 0.6 2.1 -0.2
v 0.6 2.1 -0.4
v 0.6 2.2 -0.2
v 0.6 2.2 -0.4
v 0.6 3 -0.3
v 0.6 3 -0.4
v 0.6 3.1 -0.3
v 0.6 3.1 -0.4
v 0.7 2 -0.2
v 0.7 2 -0.4
v 0.7 2.1 -0.2
v 0.7 2.1 -0.4
v 0.7 3.1 -0.3
v 0.7 3.1 -0.4
v 0.7 3.2 -0.3
v 0.7 3.2 -0.4
v 0.8 2.4 0
v 0.8 2.4 -0.2
v 0.8 2.5 0
v 0.8 2.5 -0.2
v 0.8 3.5 0
v 0.8 3.5 -0.3
v 0.8 3.6 0
v 0.8 3.6 -0.3
v 0.9 2.5 0
v 0.9 2.5 -0.2
v 0.9 2.6 0
v 0.9 2.6 -0.2
v 0.9 3.4 0
v 0.9 3.4 -0.3
v 0.9 3.5 0
v 0.9 3.5 -0.3
v 1 2.6 0
v 1 2.6 -0.2
v 1 2.7 0
v 1 2.7 -0.2
v 1 3.3 0
v 1 3.3 -0.3
v 1 3.4 0
v 1 3.4 -0.3
v 1.1 2.7 0
v 1.1 2.7 -0.2
v 1.1 3 -0.2
v 1.1 3.1 -0.2
v 1.1 3.2 -0.2
v 1.1 3.2 -0.3
v 1.1 3.3 0
v 1.1 3.3 -0.3
v 1.2 2 -0.2
v 1.2 2 -0.4
v 1.2 2.1 -0.2
v 1.2 2.1 -0.4
v 1.2 3.1 -0.2
v 1.2 3.1 -0.4
v 1.2 3.2 -0.2
v 1.2 3.2 -0.4
v 1.3 2.1 -0.2
v 1.3 2.1 -0.4
v 1.3 2.2 -0.2
v 1.3 2.2 -0.4
v 1.3 3 -0.2
v 1.3 3 -0.4
v 1.3 3.1 -0.2
v 1.3 3.1 -0.4
v 1.4 2.2 -0.2
v 1.4 2.2 -0.4
v 1.4 2.3 -0.2
v 1.4 2.3 -0.4
v 1.4 2.9 -0.2
v 1.4 2.9 -0.4
v 1.4 3 -0.2
v 1.4 3 -0.4
v 1.5 2.3 -0.2
v 1.5 2.3 -0.4
v 1.5 2.9 -0.2
v 1.5 2.9 -0.4
v 0 2.7 0
v 0 3.3 0
v 0.1 2.6 0
v 0.1 2.7 0
v 0.1 3.3 0
v 0.1 3.4 0
v 0.2 2.5 0
v 0.2 2.6 0
v 0.2 2.7 0
v 0.2 3.2 0
v 0.2 3.3 0
v 0.2 3.4 0
v 0.2 3.5 0
v 0.3 2.4 0
v 0.3 2.5 0
v 0.3 2.6 0
v 0.3 2.7 0
v 0.3 3.2 0
v 0.3 3.3 0
v 0.3 3.4 0
v 0.3 3.5 0
v 0.3 3.6 0
v 0.4 2.7 0
v 0.4 3 0
v 0.4 3.1 0
v 0.4 3.2 0
v 0.4 3.3 0
v 0.4 3.4 0
v 0.5 2.7 0
v 0.5 2.9 0
v 0.5 3.1 0
v 0.5 3.2 0
v 0.6 2.6 0
v 0.6 2.7 0
v 0.6 2.9 0
v 0.6 3 0
v 0.6 3.3 0
v 0.8 2.4 0
v 0.8 2.5 0
v 0.8 2.6 0
v 0.8 2.7 0
v 0.8 2.9 0
v 0.8 3 0
v 0.8 3.4 0
v 0.8 3.5 0
v 0.8 3.6 0
v 0.9 2.5 0
v 0.9 2.6 0
v 0.9 2.7 0
v 0.9 3.3 0
v 0.9 3.4 0
v 0.9 3.5 0
v 1 2.6 0
v 1 2.7 0
v 1 3.3 0
v 1 3.4 0
v 1.1 2.7 0
v 1.1 3.3 0
v 0.4 2.3 -0.2
v 0.4 2.4 -0.2
v 0.5 2.2 -0.2
v 0.5 2.3 -0.2
v 0.5 2.4 -0.2
v 0.6 2.1 -0.2
v 0.6 2.2 -0.2
v 0.6 2.3 -0.2
v 0.6 2.4 -0.2
v 0.7 2 -0.2
v 0.7 2.1 -0.2
v 0.7 2.2 -0.2
v 0.7 2.3 -0.2
v 0.8 2.4 -0.2
v 0.8 2.5 -0.2
v 0.9 2.5 -0.2
v 0.9 2.6 -0.2
v 1 2.6 -0.2
v 1 2.7 -0.2
v 1.1 2.7 -0.2
v 1.1 3 -0.2
v 1.1 3.1 -0.2
v 1.1 3.2 -0.2
v 1.2 2 -0.2
v 1.2 2.1 -0.2
v 1.2 2.2 -0.2
v 1.2 2.3 -0.2
v 1.2 3 -0.2
v 1.2 3.1 -0.2
v 1.2 3.2 -0.2
v 1.3 2.1 -0.2
v 1.3 2.2 -0.2
v 1.3 2.3 -0.2
v 1.3 2.9 -0.2
v 1.3 3 -0.2
v 1.3 3.1 -0.2
v 1.4 2.2 -0.2
v 1.4 2.3 -0.2
v 1.4 2.9 -0.2
v 1.4 3 -0.2
v 1.5 2.3 -0.2
v 1.5 2.9 -0.2
v 0 2.7 -0.3
v 0 3.3 -0.3
v 0.1 2.6 -0.3
v 0.1 2.7 -0.3
v 0.1 3.3 -0.3
v 0.1 3.4 -0.3
v 0.2 2.5 -0.3
v 0.2 2.6 -0.3
v 0.2 2.7 -0.3
v 0.2 3.3 -0.3
v 0.2 3.4 -0.3
v 0.2 3.5 -0.3
v 0.3 2.4 -0.3
v 0.3 2.5 -0.3
v 0.3 2.6 -0.3
v 0.3 2.7 -0.3
v 0.3 3.4 -0.3
v 0.3 3.5 -0.3
v 0.3 3.6 -0.3
v 0.4 2.4 -0.3
v 0.4 2.5 -0.3
v 0.4 2.6 -0.3
v 0.4 2.9 -0.3
v 0.5 2.9 -0.3
v 0.5 3 -0.3
v 0.6 3 -0.3
v 0.6 3.1 -0.3
v 0.7 3.1 -0.3
v 0.7 3.2 -0.3
v 0.7 3.3 -0.3
v 0.7 3.4 -0.3
v 0.8 3.2 -0.3
v 0.8 3.3 -0.3
v 0.8 3.4 -0.3
v 0.8 3.5 -0.3
v 0.8 3.6 -0.3
v 0.9 3.2 -0.3
v 0.9 3.3 -0.3
v 0.9 3.4 -0.3
v 0.9 3.5 -0.3
v 1 3.2 -0.3
v 1 3.3 -0.3
v 1 3.4 -0.3
v 1.1 3.2 -0.3
v 1.1 3.3 -0.3
v 0.4 2.3 -0.4
v 0.4 2.9 -0.4
v 0.5 2.2 -0.4
v 0.5 2.3 -0.4
v 0.5 2.9 -0.4
v 0.5 3 -0.4
v 0.6 2.1 -0.4
v 0.6 2.2 -0.4
v 0.6 2.3 -0.4
v 0.6 2.9 -0.4
v 0.6 3 -0.4
v 0.6 3.1 -0.4
v 0.7 2 -0.4
v 0.7 2.1 -0.4
v 0.7 2.2 -0.4
v 0.7 2.3 -0.4
v 0.7 2.5 -0.4
v 0.7 2.6 -0.4
v 0.7 3 -0.4
v 0.7 3.1 -0.4
v 0.7 3.2 -0.4
v 0.9 2.2 -0.4
v 0.9 2.3 -0.4
v 0.9 2.5 -0.4
v 0.9 2.6 -0.4
v 0.9 2.9 -0.4
v 1 2.3 -0.4
v 1 2.5 -0.4
v 1 2.7 -0.4
v 1 2.8 -0.4
v 1.1 2.3 -0.4
v 1.1 2.6 -0.4
v 1.1 2.7 -0.4
v 1.1 2.8 -0.4
v 1.1 2.9 -0.4
v 1.1 3 -0.4
v 1.2 2 -0.4
v 1.2 2.1 -0.4
v 1.2 2.2 -0.4
v 1.2 2.3 -0.4
v 1.2 2.8 -0.4
v 1.2 2.9 -0.4
v 1.2 3 -0.4
v 1.2 3.1 -0.4
v 1.2 3.2 -0.4
v 1.3 2.1 -0.4
v 1.3 2.2 -0.4
v 1.3 2.3 -0.4
v 1.3 2.8 -0.4
v 1.3 2.9 -0.4
v 1.3 3 -0.4
v 1.3 3.1 -0.4
v 1.4 2.2 -0.4
v 1.4 2.3 -0.4
v 1.4 2.9 -0.4
v 1.4 3 -0.4
v 1.5 2.3 -0.4
v 1.5 2.9 -0.4
v 0.7 2 -0.2
v 1.2 2 -0.2
v 0.7 2 -0.4
v 1.2 2 -0.4
v 0.6 2.1 -0.2
v 0.7 2.1 -0.2
v 1.2 2.1 -0.2
v 1.3 2.1 -0.2
v 0.6 2.1 -0.4
v 0.7 2.1 -0.4
v 1.2 2.1 -0.4
v 1.3 2.1 -0.4
v 0.5 2.2 -0.2
v 0.6 2.2 -0.2
v 1.3 2.2 -0.2
v 1.4 2.2 -0.2
v 0.5 2.2 -0.4
v 0.6 2.2 -0.4
v 1.3 2.2 -0.4
v 1.4 2.2 -0.4
v 0.4 2.3 -0.2
v 0.5 2.3 -0.2
v 1.4 2.3 -0.2
v 1.5 2.3 -0.2
v 0.4 2.3 -0.4
v 0.5 2.3 -0.4
v 1.4 2.3 -0.4
v 1.5 2.3 -0.4
v 0.3 2.4 0
v 0.8 2.4 0
v 0.4 2.4 -0.2
v 0.5 2.4 -0.2
v 0.6 2.4 -0.2
v 0.8 2.4 -0.2
v 0.3 2.4 -0.3
v 0.4 2.4 -0.3
v 0.2 2.5 0
v 0.3 2.5 0
v 0.8 2.5 0
v 0.9 2.5 0
v 0.8 2.5 -0.2
v 0.9 2.5 -0.2
v 0.2 2.5 -0.3
v 0.3 2.5 -0.3
v 0.1 2.6 0
v 0.2 2.6 0
v 0.9 2.6 0
v 1 2.6 0
v 0.9 2.6 -0.2
v 1 2.6 -0.2
v 0.1 2.6 -0.3
v 0.2 2.6 -0.3
v 0 2.7 0
v 0.1 2.7 0
v 1 2.7 0
v 1.1 2.7 0
v 1 2.7 -0.2
v 1.1 2.7 -0.2
v 0 2.7 -0.3
v 0.1 2.7 -0.3
v 1.4 2.9 -0.2
v 1.5 2.9 -0.2
v 0.4 2.9 -0.3
v 0.5 2.9 -0.3
v 0.4 2.9 -0.4
v 0.5 2.9 -0.4
v 1.4 2.9 -0.4
v 1.5 2.9 -0.4
v 1.3 3 -0.2
v 1.4 3 -0.2
v 0.5 3 -0.3
v 0.6 3 -0.3
v 0.5 3 -0.4
v 0.6 3 -0.4
v 1.3 3 -0.4
v 1.4 3 -0.4
v 1.2 3.1 -0.2
v 1.3 3.1 -0.2
v 0.6 3.1 -0.3
v 0.7 3.1 -0.3
v 0.6 3.1 -0.4
v 0.7 3.1 -0.4
v 1.2 3.1 -0.4
v 1.3 3.1 -0.4
v 1.1 3.2 -0.2
v 1.2 3.2 -0.2
v 0.7 3.2 -0.3
v 0.8 3.2 -0.3
v 0.9 3.2 -0.3
v 1 3.2 -0.3
v 1.1 3.2 -0.3
v 0.7 3.2 -0.4
v 1.2 3.2 -0.4
v 0 3.3 0
v 0.1 3.3 0
v 1 3.3 0
v 1.1 3.3 0
v 0 3.3 -0.3
v 0.1 3.3 -0.3
v 1 3.3 -0.3
v 1.1 3.3 -0.3
v 0.1 3.4 0
v 0.2 3.4 0
v 0.9 3.4 0
v 1 3.4 0
v 0.1 3.4 -0.3
v 0.2 3.4 -0.3
v 0.9 3.4 -0.3
v 1 3.4 -0.3
v 0.2 3.5 0
v 0.3 3.5 0
v 0.8 3.5 0
v 0.9 3.5 0
v 0.2 3.5 -0.3
v 0.3 3.5 -0.3
v 0.8 3.5 -0.3
v 0.9 3.5 -0.3
v 0.3 3.6 0
v 0.8 3.6 0
v 0.3 3.6 -0.3
v 0.8 3.6 -0.3

# faces
f 3/6/1 2/6/1 1/6/1
f 4/6/1 2/6/1 3/6/1
f 7/6/1 6/6/1 5/6/1
f 8/6/1 6/6/1 7/6/1
f 11/6/1 10/6/1 9/6/1
f 12/6/1 10/6/1 11/6/1
f 15/6/1 14/6/1 13/6/1
f 16/6/1 14/6/1 15/6/1
f 19/6/1 18/6/1 17/6/1
f 20/6/1 18/6/1 19/6/1
f 23/6/1 22/6/1 21/6/1
f 24/6/1 22/6/1 23/6/1
f 27/6/1 26/6/1 25/6/1
f 28/6/1 26/6/1 27/6/1
f 31/6/1 30/6/1 29/6/1
f 32/6/1 30/6/1 31/6/1
f 33/6/1 30/6/1 32/6/1
f 34/6/1 30/6/1 33/6/1
f 35/6/1 30/6/1 34/6/1
f 36/6/1 30/6/1 35/6/1
f 39/6/1 38/6/1 37/6/1
f 40/6/1 38/6/1 39/6/1
f 43/6/1 42/6/1 41/6/1
f 44/6/1 42/6/1 43/6/1
f 47/6/1 46/6/1 45/6/1
f 48/6/1 46/6/1 47/6/1
f 51/6/1 50/6/1 49/6/1
f 52/6/1 50/6/1 51/6/1
f 55/6/1 54/6/1 53/6/1
f 56/6/1 54/6/1 55/6/1
f 59/6/1 58/6/1 57/6/1
f 60/6/1 58/6/1 59/6/1
f 61/6/2 62/6/2 63/6/2
f 63/6/2 62/6/2 64/6/2
f 65/6/2 66/6/2 67/6/2
f 67/6/2 66/6/2 68/6/2
f 69/6/2 70/6/2 71/6/2
f 71/6/2 70/6/2 72/6/2
f 73/6/2 74/6/2 75/6/2
f 75/6/2 74/6/2 76/6/2
f 77/6/2 78/6/2 79/6/2
f 79/6/2 78/6/2 80/6/2
f 81/6/2 82/6/2 83/6/2
f 83/6/2 82/6/2 84/6/2
f 85/6/2 86/6/2 87/6/2
f 85/6/2 87/6/2 88/6/2
f 85/6/2 88/6/2 89/6/2
f 85/6/2 89/6/2 91/6/2
f 89/6/2 90/6/2 91/6/2
f 91/6/2 90/6/2 92/6/2
f 93/6/2 94/6/2 95/6/2
f 95/6/2 94/6/2 96/6/2
f 97/6/2 98/6/2 99/6/2
f 99/6/2 98/6/2 100/6/2
f 101/6/2 102/6/2 103/6/2
f 103/6/2 102/6/2 104/6/2
f 105/6/2 106/6/2 107/6/2
f 107/6/2 106/6/2 108/6/2
f 109/6/2 110/6/2 111/6/2
f 111/6/2 110/6/2 112/6/2
f 113/6/2 114/6/2 115/6/2
f 115/6/2 114/6/2 116/6/2
f 117/6/2 118/6/2 119/6/2
f 119/6/2 118/6/2 120/6/2
f 124/6/3 122/6/3 121/6/3
f 125/6/3 122/6/3 124/6/3
f 128/6/3 124/6/3 123/6/3
f 129/1/3 125/1/3 124/1/3
f 129/6/3 124/6/3 128/6/3
f 130/1/3 125/1/3 129/1/3
f 131/6/3 126/6/3 125/6/3
f 131/1/3 125/1/3 130/1/3
f 132/6/3 126/6/3 131/6/3
f 135/6/3 128/6/3 127/6/3
f 136/1/3 129/1/3 128/1/3
f 136/6/3 128/6/3 135/6/3
f 137/2/3 130/2/3 129/2/3
f 137/1/3 129/1/3 136/1/3
f 138/4/3 131/4/3 130/4/3
f 138/2/3 130/2/3 137/2/3
f 139/1/3 132/1/3 131/1/3
f 139/4/3 131/4/3 138/4/3
f 140/6/3 133/6/3 132/6/3
f 140/1/3 132/1/3 139/1/3
f 141/6/3 133/6/3 140/6/3
f 143/5/3 139/5/3 138/5/3
f 143/2/3 137/2/3 136/2/3
f 143/5/3 138/5/3 137/5/3
f 144/5/3 139/5/3 143/5/3
f 145/5/3 139/5/3 144/5/3
f 146/5/3 139/5/3 145/5/3
f 147/4/3 140/4/3 139/4/3
f 147/5/3 139/5/3 146/5/3
f 148/1/3 141/1/3 140/1/3
f 148/4/3 140/4/3 147/4/3
f 149/2/3 143/2/3 136/2/3
f 149/2/3 144/2/3 143/2/3
f 150/2/3 144/2/3 149/2/3
f 151/2/3 146/2/3 145/2/3
f 151/5/3 145/5/3 144/5/3
f 152/5/3 147/5/3 146/5/3
f 152/2/3 146/2/3 151/2/3
f 153/3/3 136/3/3 135/3/3
f 153/2/3 149/2/3 136/2/3
f 154/5/3 150/5/3 149/5/3
f 154/2/3 149/2/3 153/2/3
f 155/2/3 144/2/3 150/2/3
f 155/5/3 150/5/3 154/5/3
f 156/5/3 151/5/3 144/5/3
f 156/2/3 144/2/3 155/2/3
f 156/5/3 152/5/3 151/5/3
f 157/5/3 147/5/3 152/5/3
f 157/5/3 152/5/3 156/5/3
f 157/2/3 148/2/3 147/2/3
f 158/6/3 135/6/3 134/6/3
f 159/3/3 153/3/3 135/3/3
f 159/6/3 135/6/3 158/6/3
f 160/5/3 154/5/3 153/5/3
f 160/3/3 153/3/3 159/3/3
f 161/2/3 155/2/3 154/2/3
f 161/5/3 154/5/3 160/5/3
f 162/5/3 156/5/3 155/5/3
f 162/2/3 155/2/3 161/2/3
f 163/2/3 157/2/3 156/2/3
f 163/5/3 156/5/3 162/5/3
f 164/2/3 148/2/3 157/2/3
f 164/2/3 157/2/3 163/2/3
f 164/1/3 141/1/3 148/1/3
f 165/6/3 142/6/3 141/6/3
f 165/1/3 141/1/3 164/1/3
f 166/6/3 142/6/3 165/6/3
f 167/6/3 160/6/3 159/6/3
f 168/3/3 161/3/3 160/3/3
f 168/6/3 160/6/3 167/6/3
f 169/2/3 164/2/3 163/2/3
f 169/3/3 161/3/3 168/3/3
f 169/2/3 163/2/3 162/2/3
f 169/2/3 162/2/3 161/2/3
f 170/2/3 164/2/3 169/2/3
f 171/6/3 165/6/3 164/6/3
f 171/2/3 164/2/3 170/2/3
f 172/6/3 165/6/3 171/6/3
f 173/6/3 169/6/3 168/6/3
f 174/3/3 170/3/3 169/3/3
f 174/6/3 169/6/3 173/6/3
f 175/6/3 171/6/3 170/6/3
f 175/3/3 170/3/3 174/3/3
f 176/6/3 171/6/3 175/6/3
f 177/6/3 175/6/3 174/6/3
f 178/6/3 175/6/3 177/6/3
f 182/6/3 180/6/3 179/6/3
f 183/6/3 180/6/3 182/6/3
f 185/6/3 182/6/3 181/6/3
f 186/1/3 183/1/3 182/1/3
f 186/6/3 182/6/3 185/6/3
f 187/1/3 183/1/3 186/1/3
f 189/6/3 185/6/3 184/6/3
f 190/1/3 186/1/3 185/1/3
f 190/6/3 185/6/3 189/6/3
f 191/2/3 187/2/3 186/2/3
f 191/1/3 186/1/3 190/1/3
f 192/2/3 191/2/3 190/2/3
f 192/2/3 187/2/3 191/2/3
f 194/2/3 193/2/3 192/2/3
f 196/2/3 195/2/3 194/2/3
f 198/2/3 197/2/3 196/2/3
f 202/6/3 189/6/3 188/6/3
f 203/3/3 190/3/3 189/3/3
f 203/6/3 189/6/3 202/6/3
f 204/2/3 192/2/3 190/2/3
f 204/3/3 190/3/3 203/3/3
f 204/2/3 194/2/3 192/2/3
f 204/2/3 196/2/3 194/2/3
f 204/2/3 199/2/3 198/2/3
f 204/2/3 198/2/3 196/2/3
f 205/2/3 199/2/3 204/2/3
f 206/1/3 200/1/3 199/1/3
f 206/2/3 199/2/3 205/2/3
f 207/6/3 201/6/3 200/6/3
f 207/1/3 200/1/3 206/1/3
f 208/6/3 201/6/3 207/6/3
f 209/6/3 204/6/3 203/6/3
f 210/3/3 205/3/3 204/3/3
f 210/6/3 204/6/3 209/6/3
f 211/2/3 206/2/3 205/2/3
f 211/3/3 205/3/3 210/3/3
f 212/2/3 206/2/3 211/2/3
f 213/6/3 207/6/3 206/6/3
f 213/2/3 206/2/3 212/2/3
f 214/6/3 207/6/3 213/6/3
f 215/6/3 211/6/3 210/6/3
f 216/3/3 212/3/3 211/3/3
f 216/6/3 211/6/3 215/6/3
f 217/6/3 213/6/3 212/6/3
f 217/3/3 212/3/3 216/3/3
f 218/6/3 213/6/3 217/6/3
f 219/6/3 217/6/3 216/6/3
f 220/6/3 217/6/3 219/6/3
f 221/6/4 222/6/4 224/6/4
f 224/6/4 222/6/4 225/6/4
f 223/6/4 224/6/4 228/6/4
f 224/3/4 225/3/4 229/3/4
f 228/6/4 224/6/4 229/6/4
f 225/6/4 226/6/4 230/6/4
f 229/3/4 225/3/4 230/3/4
f 230/6/4 226/6/4 231/6/4
f 227/6/4 228/6/4 234/6/4
f 228/3/4 229/3/4 235/3/4
f 234/6/4 228/6/4 235/6/4
f 229/2/4 230/2/4 236/2/4
f 235/3/4 229/3/4 236/3/4
f 230/2/4 231/2/4 236/2/4
f 231/6/4 232/6/4 237/6/4
f 236/2/4 231/2/4 237/2/4
f 237/6/4 232/6/4 238/6/4
f 233/6/4 234/6/4 240/6/4
f 234/3/4 235/3/4 241/3/4
f 240/6/4 234/6/4 241/6/4
f 235/2/4 236/2/4 242/2/4
f 241/3/4 235/3/4 242/3/4
f 236/2/4 237/2/4 242/2/4
f 242/2/4 237/2/4 243/2/4
f 243/2/4 237/2/4 244/2/4
f 244/2/4 237/2/4 245/2/4
f 245/2/4 237/2/4 246/2/4
f 246/2/4 237/2/4 247/2/4
f 247/2/4 237/2/4 248/2/4
f 248/2/4 237/2/4 249/2/4
f 249/2/4 237/2/4 250/2/4
f 237/1/4 238/1/4 251/1/4
f 250/2/4 237/2/4 251/2/4
f 249/2/4 250/2/4 252/2/4
f 250/4/4 251/4/4 253/4/4
f 252/2/4 250/2/4 253/2/4
f 251/1/4 238/1/4 254/1/4
f 253/4/4 251/4/4 254/4/4
f 238/6/4 239/6/4 255/6/4
f 254/1/4 238/1/4 255/1/4
f 255/6/4 239/6/4 256/6/4
f 252/4/4 253/4/4 257/4/4
f 253/1/4 254/1/4 258/1/4
f 257/4/4 253/4/4 258/4/4
f 254/6/4 255/6/4 259/6/4
f 258/1/4 254/1/4 259/1/4
f 259/6/4 255/6/4 260/6/4
f 257/1/4 258/1/4 261/1/4
f 258/6/4 259/6/4 262/6/4
f 261/1/4 258/1/4 262/1/4
f 262/6/4 259/6/4 263/6/4
f 261/6/4 262/6/4 264/6/4
f 264/6/4 262/6/4 265/6/4
f 266/6/4 267/6/4 269/6/4
f 269/6/4 267/6/4 270/6/4
f 268/6/4 269/6/4 273/6/4
f 269/3/4 270/3/4 274/3/4
f 273/6/4 269/6/4 274/6/4
f 270/6/4 271/6/4 275/6/4
f 274/3/4 270/3/4 275/3/4
f 275/6/4 271/6/4 276/6/4
f 272/6/4 273/6/4 279/6/4
f 273/3/4 274/3/4 280/3/4
f 279/6/4 273/6/4 280/6/4
f 274/2/4 275/2/4 281/2/4
f 280/3/4 274/3/4 281/3/4
f 275/2/4 276/2/4 281/2/4
f 281/2/4 276/2/4 282/2/4
f 282/2/4 276/2/4 283/2/4
f 276/6/4 277/6/4 284/6/4
f 283/2/4 276/2/4 284/2/4
f 284/6/4 277/6/4 285/6/4
f 279/3/4 280/3/4 287/3/4
f 280/5/4 281/5/4 287/5/4
f 281/2/4 282/2/4 288/2/4
f 287/5/4 281/5/4 288/5/4
f 282/5/4 283/5/4 289/5/4
f 288/2/4 282/2/4 289/2/4
f 283/2/4 284/2/4 290/2/4
f 289/5/4 283/5/4 290/5/4
f 290/2/4 284/2/4 291/2/4
f 287/2/4 288/2/4 292/2/4
f 288/5/4 289/5/4 292/5/4
f 289/2/4 290/2/4 293/2/4
f 292/5/4 289/5/4 293/5/4
f 290/5/4 291/5/4 294/5/4
f 294/5/4 291/5/4 295/5/4
f 287/2/4 292/2/4 296/2/4
f 292/2/4 293/2/4 296/2/4
f 293/2/4 290/2/4 297/2/4
f 296/2/4 293/2/4 297/2/4
f 290/5/4 294/5/4 297/5/4
f 294/2/4 295/2/4 298/2/4
f 297/5/4 294/5/4 298/5/4
f 295/5/4 291/5/4 299/5/4
f 298/2/4 295/2/4 299/2/4
f 291/2/4 284/2/4 300/2/4
f 299/5/4 291/5/4 300/5/4
f 284/1/4 285/1/4 301/1/4
f 300/2/4 284/2/4 301/2/4
f 278/6/4 279/6/4 302/6/4
f 279/3/4 287/3/4 303/3/4
f 302/6/4 279/6/4 303/6/4
f 287/2/4 296/2/4 304/2/4
f 303/3/4 287/3/4 304/3/4
f 298/5/4 299/5/4 305/5/4
f 304/2/4 296/2/4 305/2/4
f 299/5/4 300/5/4 305/5/4
f 297/5/4 298/5/4 305/5/4
f 296/5/4 297/5/4 305/5/4
f 305/5/4 300/5/4 306/5/4
f 300/4/4 301/4/4 307/4/4
f 306/5/4 300/5/4 307/5/4
f 301/1/4 285/1/4 308/1/4
f 307/4/4 301/4/4 308/4/4
f 285/6/4 286/6/4 309/6/4
f 308/1/4 285/1/4 309/1/4
f 309/6/4 286/6/4 310/6/4
f 303/6/4 304/6/4 311/6/4
f 304/1/4 305/1/4 312/1/4
f 311/6/4 304/6/4 312/6/4
f 305/2/4 306/2/4 313/2/4
f 312/1/4 305/1/4 313/1/4
f 306/4/4 307/4/4 314/4/4
f 313/2/4 306/2/4 314/2/4
f 307/1/4 308/1/4 315/1/4
f 314/4/4 307/4/4 315/4/4
f 308/6/4 309/6/4 316/6/4
f 315/1/4 308/1/4 316/1/4
f 316/6/4 309/6/4 317/6/4
f 312/6/4 313/6/4 318/6/4
f 313/1/4 314/1/4 319/1/4
f 318/6/4 313/6/4 319/6/4
f 314/1/4 315/1/4 319/1/4
f 315/6/4 316/6/4 320/6/4
f 319/1/4 315/1/4 320/1/4
f 320/6/4 316/6/4 321/6/4
f 319/6/4 320/6/4 322/6/4
f 322/6/4 320/6/4 323/6/4
f 326/6/5 325/6/5 324/6/5
f 327/6/5 325/6/5 326/6/5
f 332/6/5 329/6/5 328/6/5
f 333/6/5 329/6/5 332/6/5
f 334/6/5 331/6/5 330/6/5
f 335/6/5 331/6/5 334/6/5
f 340/6/5 337/6/5 336/6/5
f 341/6/5 337/6/5 340/6/5
f 342/6/5 339/6/5 338/6/5
f 343/6/5 339/6/5 342/6/5
f 348/6/5 345/6/5 344/6/5
f 349/6/5 345/6/5 348/6/5
f 350/6/5 347/6/5 346/6/5
f 351/6/5 347/6/5 350/6/5
f 354/6/5 353/6/5 352/6/5
f 355/6/5 353/6/5 354/6/5
f 356/6/5 353/6/5 355/6/5
f 357/6/5 353/6/5 356/6/5
f 358/6/5 354/6/5 352/6/5
f 359/6/5 354/6/5 358/6/5
f 364/6/5 363/6/5 362/6/5
f 365/6/5 363/6/5 364/6/5
f 366/6/5 361/6/5 360/6/5
f 367/6/5 361/6/5 366/6/5
f 372/6/5 371/6/5 370/6/5
f 373/6/5 371/6/5 372/6/5
f 374/6/5 369/6/5 368/6/5
f 375/6/5 369/6/5 374/6/5
f 380/6/5 379/6/5 378/6/5
f 381/6/5 379/6/5 380/6/5
f 382/6/5 377/6/5 376/6/5
f 383/6/5 377/6/5 382/6/5
f 386/6/6 387/6/6 388/6/6
f 388/6/6 387/6/6 389/6/6
f 384/6/6 385/6/6 390/6/6
f 390/6/6 385/6/6 391/6/6
f 394/6/6 395/6/6 396/6/6
f 396/6/6 395/6/6 397/6/6
f 392/6/6 393/6/6 398/6/6
f 398/6/6 393/6/6 399/6/6
f 402/6/6 403/6/6 404/6/6
f 404/6/6 403/6/6 405/6/6
f 400/6/6 401/6/6 406/6/6
f 406/6/6 401/6/6 407/6/6
f 408/6/6 409/6/6 414/6/6
f 412/6/6 413/6/6 415/6/6
f 413/6/6 414/6/6 415/6/6
f 410/6/6 411/6/6 415/6/6
f 411/6/6 412/6/6 415/6/6
f 414/6/6 409/6/6 416/6/6
f 415/6/6 414/6/6 416/6/6
f 417/6/6 418/6/6 421/6/6
f 421/6/6 418/6/6 422/6/6
f 419/6/6 420/6/6 423/6/6
f 423/6/6 420/6/6 424/6/6
f 425/6/6 426/6/6 429/6/6
f 429/6/6 426/6/6 430/6/6
f 427/6/6 428/6/6 431/6/6
f 431/6/6 428/6/6 432/6/6
f 433/6/6 434/6/6 437/6/6
f 437/6/6 434/6/6 438/6/6
f 435/6/6 436/6/6 439/6/6
f 439/6/6 436/6/6 440/6/6
f 441/6/6 442/6/6 443/6/6
f 443/6/6 442/6/6 444/6/6
