# MagicaVoxel @ Ephtracy

# group
o 

# material
mtllib health.mtl
usemtl palette

# normals
vn -1 0 0
vn 1 0 0
vn 0 0 1
vn 0 0 -1
vn 0 -1 0
vn 0 1 0

# texcoords
vt 0.845703 0.5
vt 0.958984 0.5
vt 0.994141 0.5

# verts
v 0 2.6 -0.1
v 0 2.6 -0.2
v 0 2.9 -0.1
v 0 2.9 -0.2
v 0.1 2.5 -0.1
v 0.1 2.5 -0.2
v 0.1 2.6 0
v 0.1 2.6 -0.1
v 0.1 2.6 -0.2
v 0.1 2.6 -0.3
v 0.1 2.9 0
v 0.1 2.9 -0.1
v 0.1 2.9 -0.2
v 0.1 2.9 -0.3
v 0.1 3 -0.1
v 0.1 3 -0.2
v 0.2 2.4 -0.1
v 0.2 2.4 -0.2
v 0.2 2.5 0
v 0.2 2.5 -0.1
v 0.2 2.5 -0.2
v 0.2 2.5 -0.3
v 0.2 2.6 0
v 0.2 2.6 -0.1
v 0.2 2.6 -0.2
v 0.2 2.6 -0.3
v 0.2 2.9 0
v 0.2 2.9 -0.1
v 0.2 2.9 -0.2
v 0.2 2.9 -0.3
v 0.2 3 0
v 0.2 3 -0.1
v 0.2 3 -0.2
v 0.2 3 -0.3
v 0.2 3.1 -0.1
v 0.2 3.1 -0.2
v 0.3 2.3 -0.1
v 0.3 2.3 -0.2
v 0.3 2.4 0
v 0.3 2.4 -0.1
v 0.3 2.4 -0.2
v 0.3 2.4 -0.3
v 0.3 2.5 0
v 0.3 2.5 -0.1
v 0.3 2.5 -0.2
v 0.3 2.5 -0.3
v 0.4 2.2 -0.1
v 0.4 2.2 -0.2
v 0.4 2.3 0
v 0.4 2.3 -0.1
v 0.4 2.3 -0.2
v 0.4 2.3 -0.3
v 0.4 2.4 0
v 0.4 2.4 -0.1
v 0.4 2.4 -0.2
v 0.4 2.4 -0.3
v 0.5 2.1 -0.1
v 0.5 2.1 -0.2
v 0.5 2.2 0
v 0.5 2.2 -0.1
v 0.5 2.2 -0.2
v 0.5 2.2 -0.3
v 0.5 2.3 0
v 0.5 2.3 -0.1
v 0.5 2.3 -0.2
v 0.5 2.3 -0.3
v 0.6 2 -0.1
v 0.6 2 -0.2
v 0.6 2.1 0
v 0.6 2.1 -0.1
v 0.6 2.1 -0.2
v 0.6 2.1 -0.3
v 0.6 2.2 0
v 0.6 2.2 -0.1
v 0.6 2.2 -0.2
v 0.6 2.2 -0.3
v 0.7 2.8 0
v 0.7 2.8 -0.1
v 0.7 2.8 -0.2
v 0.7 2.8 -0.3
v 0.7 2.9 0
v 0.7 2.9 -0.1
v 0.7 2.9 -0.2
v 0.7 2.9 -0.3
v 0.7 3 -0.1
v 0.7 3 -0.2
v 0.8 2.9 0
v 0.8 2.9 -0.1
v 0.8 2.9 -0.2
v 0.8 2.9 -0.3
v 0.8 3 0
v 0.8 3 -0.1
v 0.8 3 -0.2
v 0.8 3 -0.3
v 0.8 3.1 -0.1
v 0.8 3.1 -0.2
v 0.5 2.9 0
v 0.5 2.9 -0.1
v 0.5 2.9 -0.2
v 0.5 2.9 -0.3
v 0.5 3 0
v 0.5 3 -0.1
v 0.5 3 -0.2
v 0.5 3 -0.3
v 0.5 3.1 -0.1
v 0.5 3.1 -0.2
v 0.6 2.8 0
v 0.6 2.8 -0.1
v 0.6 2.8 -0.2
v 0.6 2.8 -0.3
v 0.6 2.9 0
v 0.6 2.9 -0.1
v 0.6 2.9 -0.2
v 0.6 2.9 -0.3
v 0.6 3 -0.1
v 0.6 3 -0.2
v 0.7 2 -0.1
v 0.7 2 -0.2
v 0.7 2.1 0
v 0.7 2.1 -0.1
v 0.7 2.1 -0.2
v 0.7 2.1 -0.3
v 0.7 2.2 0
v 0.7 2.2 -0.1
v 0.7 2.2 -0.2
v 0.7 2.2 -0.3
v 0.8 2.1 -0.1
v 0.8 2.1 -0.2
v 0.8 2.2 0
v 0.8 2.2 -0.1
v 0.8 2.2 -0.2
v 0.8 2.2 -0.3
v 0.8 2.3 0
v 0.8 2.3 -0.1
v 0.8 2.3 -0.2
v 0.8 2.3 -0.3
v 0.9 2.2 -0.1
v 0.9 2.2 -0.2
v 0.9 2.3 0
v 0.9 2.3 -0.1
v 0.9 2.3 -0.2
v 0.9 2.3 -0.3
v 0.9 2.4 0
v 0.9 2.4 -0.1
v 0.9 2.4 -0.2
v 0.9 2.4 -0.3
v 1 2.3 -0.1
v 1 2.3 -0.2
v 1 2.4 0
v 1 2.4 -0.1
v 1 2.4 -0.2
v 1 2.4 -0.3
v 1 2.5 0
v 1 2.5 -0.1
v 1 2.5 -0.2
v 1 2.5 -0.3
v 1.1 2.4 -0.1
v 1.1 2.4 -0.2
v 1.1 2.5 0
v 1.1 2.5 -0.1
v 1.1 2.5 -0.2
v 1.1 2.5 -0.3
v 1.1 2.6 0
v 1.1 2.6 -0.1
v 1.1 2.6 -0.2
v 1.1 2.6 -0.3
v 1.1 2.9 0
v 1.1 2.9 -0.1
v 1.1 2.9 -0.2
v 1.1 2.9 -0.3
v 1.1 3 0
v 1.1 3 -0.1
v 1.1 3 -0.2
v 1.1 3 -0.3
v 1.1 3.1 -0.1
v 1.1 3.1 -0.2
v 1.2 2.5 -0.1
v 1.2 2.5 -0.2
v 1.2 2.6 0
v 1.2 2.6 -0.1
v 1.2 2.6 -0.2
v 1.2 2.6 -0.3
v 1.2 2.9 0
v 1.2 2.9 -0.1
v 1.2 2.9 -0.2
v 1.2 2.9 -0.3
v 1.2 3 -0.1
v 1.2 3 -0.2
v 1.3 2.6 -0.1
v 1.3 2.6 -0.2
v 1.3 2.9 -0.1
v 1.3 2.9 -0.2
v 0.1 2.6 0
v 0.1 2.9 0
v 0.2 2.5 0
v 0.2 2.6 0
v 0.2 2.7 0
v 0.2 2.9 0
v 0.2 3 0
v 0.3 2.4 0
v 0.3 2.5 0
v 0.3 2.7 0
v 0.3 2.8 0
v 0.4 2.3 0
v 0.4 2.4 0
v 0.4 2.8 0
v 0.4 2.9 0
v 0.5 2.2 0
v 0.5 2.3 0
v 0.5 2.9 0
v 0.5 3 0
v 0.6 2.1 0
v 0.6 2.2 0
v 0.6 2.8 0
v 0.6 2.9 0
v 0.7 2.1 0
v 0.7 2.2 0
v 0.7 2.8 0
v 0.7 2.9 0
v 0.8 2.2 0
v 0.8 2.3 0
v 0.8 2.9 0
v 0.8 3 0
v 0.9 2.3 0
v 0.9 2.4 0
v 1 2.4 0
v 1 2.5 0
v 1.1 2.5 0
v 1.1 2.6 0
v 1.1 2.9 0
v 1.1 3 0
v 1.2 2.6 0
v 1.2 2.9 0
v 0 2.6 -0.1
v 0 2.9 -0.1
v 0.1 2.5 -0.1
v 0.1 2.6 -0.1
v 0.1 2.9 -0.1
v 0.1 3 -0.1
v 0.2 2.4 -0.1
v 0.2 2.5 -0.1
v 0.2 2.6 -0.1
v 0.2 2.9 -0.1
v 0.2 3 -0.1
v 0.2 3.1 -0.1
v 0.3 2.3 -0.1
v 0.3 2.4 -0.1
v 0.3 2.5 -0.1
v 0.4 2.2 -0.1
v 0.4 2.3 -0.1
v 0.4 2.4 -0.1
v 0.5 2.1 -0.1
v 0.5 2.2 -0.1
v 0.5 2.3 -0.1
v 0.5 2.9 -0.1
v 0.5 3 -0.1
v 0.5 3.1 -0.1
v 0.6 2 -0.1
v 0.6 2.1 -0.1
v 0.6 2.2 -0.1
v 0.6 2.8 -0.1
v 0.6 2.9 -0.1
v 0.6 3 -0.1
v 0.7 2 -0.1
v 0.7 2.1 -0.1
v 0.7 2.2 -0.1
v 0.7 2.8 -0.1
v 0.7 2.9 -0.1
v 0.7 3 -0.1
v 0.8 2.1 -0.1
v 0.8 2.2 -0.1
v 0.8 2.3 -0.1
v 0.8 2.9 -0.1
v 0.8 3 -0.1
v 0.8 3.1 -0.1
v 0.9 2.2 -0.1
v 0.9 2.3 -0.1
v 0.9 2.4 -0.1
v 1 2.3 -0.1
v 1 2.4 -0.1
v 1 2.5 -0.1
v 1.1 2.4 -0.1
v 1.1 2.5 -0.1
v 1.1 2.6 -0.1
v 1.1 2.9 -0.1
v 1.1 3 -0.1
v 1.1 3.1 -0.1
v 1.2 2.5 -0.1
v 1.2 2.6 -0.1
v 1.2 2.9 -0.1
v 1.2 3 -0.1
v 1.3 2.6 -0.1
v 1.3 2.9 -0.1
v 0 2.6 -0.2
v 0 2.9 -0.2
v 0.1 2.5 -0.2
v 0.1 2.6 -0.2
v 0.1 2.9 -0.2
v 0.1 3 -0.2
v 0.2 2.4 -0.2
v 0.2 2.5 -0.2
v 0.2 2.6 -0.2
v 0.2 2.9 -0.2
v 0.2 3 -0.2
v 0.2 3.1 -0.2
v 0.3 2.3 -0.2
v 0.3 2.4 -0.2
v 0.3 2.5 -0.2
v 0.4 2.2 -0.2
v 0.4 2.3 -0.2
v 0.4 2.4 -0.2
v 0.5 2.1 -0.2
v 0.5 2.2 -0.2
v 0.5 2.3 -0.2
v 0.5 2.9 -0.2
v 0.5 3 -0.2
v 0.5 3.1 -0.2
v 0.6 2 -0.2
v 0.6 2.1 -0.2
v 0.6 2.2 -0.2
v 0.6 2.8 -0.2
v 0.6 2.9 -0.2
v 0.6 3 -0.2
v 0.7 2 -0.2
v 0.7 2.1 -0.2
v 0.7 2.2 -0.2
v 0.7 2.8 -0.2
v 0.7 2.9 -0.2
v 0.7 3 -0.2
v 0.8 2.1 -0.2
v 0.8 2.2 -0.2
v 0.8 2.3 -0.2
v 0.8 2.9 -0.2
v 0.8 3 -0.2
v 0.8 3.1 -0.2
v 0.9 2.2 -0.2
v 0.9 2.3 -0.2
v 0.9 2.4 -0.2
v 1 2.3 -0.2
v 1 2.4 -0.2
v 1 2.5 -0.2
v 1.1 2.4 -0.2
v 1.1 2.5 -0.2
v 1.1 2.6 -0.2
v 1.1 2.9 -0.2
v 1.1 3 -0.2
v 1.1 3.1 -0.2
v 1.2 2.5 -0.2
v 1.2 2.6 -0.2
v 1.2 2.9 -0.2
v 1.2 3 -0.2
v 1.3 2.6 -0.2
v 1.3 2.9 -0.2
v 0.1 2.6 -0.3
v 0.1 2.9 -0.3
v 0.2 2.5 -0.3
v 0.2 2.6 -0.3
v 0.2 2.9 -0.3
v 0.2 3 -0.3
v 0.3 2.4 -0.3
v 0.3 2.5 -0.3
v 0.4 2.3 -0.3
v 0.4 2.4 -0.3
v 0.5 2.2 -0.3
v 0.5 2.3 -0.3
v 0.5 2.9 -0.3
v 0.5 3 -0.3
v 0.6 2.1 -0.3
v 0.6 2.2 -0.3
v 0.6 2.8 -0.3
v 0.6 2.9 -0.3
v 0.7 2.1 -0.3
v 0.7 2.2 -0.3
v 0.7 2.8 -0.3
v 0.7 2.9 -0.3
v 0.8 2.2 -0.3
v 0.8 2.3 -0.3
v 0.8 2.9 -0.3
v 0.8 3 -0.3
v 0.9 2.3 -0.3
v 0.9 2.4 -0.3
v 0.9 2.8 -0.3
v 0.9 2.9 -0.3
v 1 2.4 -0.3
v 1 2.5 -0.3
v 1 2.7 -0.3
v 1 2.8 -0.3
v 1.1 2.5 -0.3
v 1.1 2.6 -0.3
v 1.1 2.7 -0.3
v 1.1 2.9 -0.3
v 1.1 3 -0.3
v 1.2 2.6 -0.3
v 1.2 2.9 -0.3
v 0.6 2 -0.1
v 0.7 2 -0.1
v 0.6 2 -0.2
v 0.7 2 -0.2
v 0.6 2.1 0
v 0.7 2.1 0
v 0.5 2.1 -0.1
v 0.6 2.1 -0.1
v 0.7 2.1 -0.1
v 0.8 2.1 -0.1
v 0.5 2.1 -0.2
v 0.6 2.1 -0.2
v 0.7 2.1 -0.2
v 0.8 2.1 -0.2
v 0.6 2.1 -0.3
v 0.7 2.1 -0.3
v 0.5 2.2 0
v 0.6 2.2 0
v 0.7 2.2 0
v 0.8 2.2 0
v 0.4 2.2 -0.1
v 0.5 2.2 -0.1
v 0.6 2.2 -0.1
v 0.7 2.2 -0.1
v 0.8 2.2 -0.1
v 0.9 2.2 -0.1
v 0.4 2.2 -0.2
v 0.5 2.2 -0.2
v 0.6 2.2 -0.2
v 0.7 2.2 -0.2
v 0.8 2.2 -0.2
v 0.9 2.2 -0.2
v 0.5 2.2 -0.3
v 0.6 2.2 -0.3
v 0.7 2.2 -0.3
v 0.8 2.2 -0.3
v 0.4 2.3 0
v 0.5 2.3 0
v 0.8 2.3 0
v 0.9 2.3 0
v 0.3 2.3 -0.1
v 0.4 2.3 -0.1
v 0.5 2.3 -0.1
v 0.8 2.3 -0.1
v 0.9 2.3 -0.1
v 1 2.3 -0.1
v 0.3 2.3 -0.2
v 0.4 2.3 -0.2
v 0.5 2.3 -0.2
v 0.8 2.3 -0.2
v 0.9 2.3 -0.2
v 1 2.3 -0.2
v 0.4 2.3 -0.3
v 0.5 2.3 -0.3
v 0.8 2.3 -0.3
v 0.9 2.3 -0.3
v 0.3 2.4 0
v 0.4 2.4 0
v 0.9 2.4 0
v 1 2.4 0
v 0.2 2.4 -0.1
v 0.3 2.4 -0.1
v 0.4 2.4 -0.1
v 0.9 2.4 -0.1
v 1 2.4 -0.1
v 1.1 2.4 -0.1
v 0.2 2.4 -0.2
v 0.3 2.4 -0.2
v 0.4 2.4 -0.2
v 0.9 2.4 -0.2
v 1 2.4 -0.2
v 1.1 2.4 -0.2
v 0.3 2.4 -0.3
v 0.4 2.4 -0.3
v 0.9 2.4 -0.3
v 1 2.4 -0.3
v 0.2 2.5 0
v 0.3 2.5 0
v 1 2.5 0
v 1.1 2.5 0
v 0.1 2.5 -0.1
v 0.2 2.5 -0.1
v 0.3 2.5 -0.1
v 1 2.5 -0.1
v 1.1 2.5 -0.1
v 1.2 2.5 -0.1
v 0.1 2.5 -0.2
v 0.2 2.5 -0.2
v 0.3 2.5 -0.2
v 1 2.5 -0.2
v 1.1 2.5 -0.2
v 1.2 2.5 -0.2
v 0.2 2.5 -0.3
v 0.3 2.5 -0.3
v 1 2.5 -0.3
v 1.1 2.5 -0.3
v 0.1 2.6 0
v 0.2 2.6 0
v 1.1 2.6 0
v 1.2 2.6 0
v 0 2.6 -0.1
v 0.1 2.6 -0.1
v 0.2 2.6 -0.1
v 1.1 2.6 -0.1
v 1.2 2.6 -0.1
v 1.3 2.6 -0.1
v 0 2.6 -0.2
v 0.1 2.6 -0.2
v 0.2 2.6 -0.2
v 1.1 2.6 -0.2
v 1.2 2.6 -0.2
v 1.3 2.6 -0.2
v 0.1 2.6 -0.3
v 0.2 2.6 -0.3
v 1.1 2.6 -0.3
v 1.2 2.6 -0.3
v 0.6 2.8 0
v 0.7 2.8 0
v 0.6 2.8 -0.1
v 0.7 2.8 -0.1
v 0.6 2.8 -0.2
v 0.7 2.8 -0.2
v 0.6 2.8 -0.3
v 0.7 2.8 -0.3
v 0.1 2.9 0
v 0.2 2.9 0
v 0.5 2.9 0
v 0.6 2.9 0
v 0.7 2.9 0
v 0.8 2.9 0
v 1.1 2.9 0
v 1.2 2.9 0
v 0 2.9 -0.1
v 0.1 2.9 -0.1
v 0.2 2.9 -0.1
v 0.5 2.9 -0.1
v 0.6 2.9 -0.1
v 0.7 2.9 -0.1
v 0.8 2.9 -0.1
v 1.1 2.9 -0.1
v 1.2 2.9 -0.1
v 1.3 2.9 -0.1
v 0 2.9 -0.2
v 0.1 2.9 -0.2
v 0.2 2.9 -0.2
v 0.5 2.9 -0.2
v 0.6 2.9 -0.2
v 0.7 2.9 -0.2
v 0.8 2.9 -0.2
v 1.1 2.9 -0.2
v 1.2 2.9 -0.2
v 1.3 2.9 -0.2
v 0.1 2.9 -0.3
v 0.2 2.9 -0.3
v 0.5 2.9 -0.3
v 0.6 2.9 -0.3
v 0.7 2.9 -0.3
v 0.8 2.9 -0.3
v 1.1 2.9 -0.3
v 1.2 2.9 -0.3
v 0.2 3 0
v 0.5 3 0
v 0.8 3 0
v 1.1 3 0
v 0.1 3 -0.1
v 0.2 3 -0.1
v 0.5 3 -0.1
v 0.6 3 -0.1
v 0.7 3 -0.1
v 0.8 3 -0.1
v 1.1 3 -0.1
v 1.2 3 -0.1
v 0.1 3 -0.2
v 0.2 3 -0.2
v 0.5 3 -0.2
v 0.6 3 -0.2
v 0.7 3 -0.2
v 0.8 3 -0.2
v 1.1 3 -0.2
v 1.2 3 -0.2
v 0.2 3 -0.3
v 0.5 3 -0.3
v 0.8 3 -0.3
v 1.1 3 -0.3
v 0.2 3.1 -0.1
v 0.5 3.1 -0.1
v 0.8 3.1 -0.1
v 1.1 3.1 -0.1
v 0.2 3.1 -0.2
v 0.5 3.1 -0.2
v 0.8 3.1 -0.2
v 1.1 3.1 -0.2

# faces
f 3/3/1 2/3/1 1/3/1
f 4/3/1 2/3/1 3/3/1
f 8/3/1 6/3/1 5/3/1
f 9/3/1 6/3/1 8/3/1
f 11/1/1 8/1/1 7/1/1
f 12/1/1 8/1/1 11/1/1
f 13/1/1 10/1/1 9/1/1
f 14/1/1 10/1/1 13/1/1
f 15/3/1 13/3/1 12/3/1
f 16/3/1 13/3/1 15/3/1
f 20/3/1 18/3/1 17/3/1
f 21/3/1 18/3/1 20/3/1
f 23/1/1 20/1/1 19/1/1
f 24/1/1 20/1/1 23/1/1
f 25/1/1 22/1/1 21/1/1
f 26/1/1 22/1/1 25/1/1
f 31/1/1 28/1/1 27/1/1
f 32/1/1 28/1/1 31/1/1
f 33/1/1 30/1/1 29/1/1
f 34/1/1 30/1/1 33/1/1
f 35/3/1 33/3/1 32/3/1
f 36/3/1 33/3/1 35/3/1
f 40/3/1 38/3/1 37/3/1
f 41/3/1 38/3/1 40/3/1
f 43/1/1 40/1/1 39/1/1
f 44/1/1 40/1/1 43/1/1
f 45/1/1 42/1/1 41/1/1
f 46/1/1 42/1/1 45/1/1
f 50/3/1 48/3/1 47/3/1
f 51/3/1 48/3/1 50/3/1
f 53/1/1 50/1/1 49/1/1
f 54/1/1 50/1/1 53/1/1
f 55/1/1 52/1/1 51/1/1
f 56/1/1 52/1/1 55/1/1
f 60/3/1 58/3/1 57/3/1
f 61/3/1 58/3/1 60/3/1
f 63/1/1 60/1/1 59/1/1
f 64/1/1 60/1/1 63/1/1
f 65/1/1 62/1/1 61/1/1
f 66/1/1 62/1/1 65/1/1
f 70/3/1 68/3/1 67/3/1
f 71/3/1 68/3/1 70/3/1
f 73/1/1 70/1/1 69/1/1
f 74/1/1 70/1/1 73/1/1
f 75/1/1 72/1/1 71/1/1
f 76/1/1 72/1/1 75/1/1
f 81/1/1 78/1/1 77/1/1
f 82/1/1 78/1/1 81/1/1
f 83/1/1 80/1/1 79/1/1
f 84/1/1 80/1/1 83/1/1
f 85/3/1 83/3/1 82/3/1
f 86/3/1 83/3/1 85/3/1
f 91/1/1 88/1/1 87/1/1
f 92/1/1 88/1/1 91/1/1
f 93/1/1 90/1/1 89/1/1
f 94/1/1 90/1/1 93/1/1
f 95/3/1 93/3/1 92/3/1
f 96/3/1 93/3/1 95/3/1
f 97/1/2 98/1/2 101/1/2
f 101/1/2 98/1/2 102/1/2
f 99/1/2 100/1/2 103/1/2
f 103/1/2 100/1/2 104/1/2
f 102/3/2 103/3/2 105/3/2
f 105/3/2 103/3/2 106/3/2
f 107/1/2 108/1/2 111/1/2
f 111/1/2 108/1/2 112/1/2
f 109/1/2 110/1/2 113/1/2
f 113/1/2 110/1/2 114/1/2
f 112/3/2 113/3/2 115/3/2
f 115/3/2 113/3/2 116/3/2
f 117/3/2 118/3/2 120/3/2
f 120/3/2 118/3/2 121/3/2
f 119/1/2 120/1/2 123/1/2
f 123/1/2 120/1/2 124/1/2
f 121/1/2 122/1/2 125/1/2
f 125/1/2 122/1/2 126/1/2
f 127/3/2 128/3/2 130/3/2
f 130/3/2 128/3/2 131/3/2
f 129/1/2 130/1/2 133/1/2
f 133/1/2 130/1/2 134/1/2
f 131/1/2 132/1/2 135/1/2
f 135/1/2 132/1/2 136/1/2
f 137/3/2 138/3/2 140/3/2
f 140/3/2 138/3/2 141/3/2
f 139/1/2 140/1/2 143/1/2
f 143/1/2 140/1/2 144/1/2
f 141/1/2 142/1/2 145/1/2
f 145/1/2 142/1/2 146/1/2
f 147/3/2 148/3/2 150/3/2
f 150/3/2 148/3/2 151/3/2
f 149/1/2 150/1/2 153/1/2
f 153/1/2 150/1/2 154/1/2
f 151/1/2 152/1/2 155/1/2
f 155/1/2 152/1/2 156/1/2
f 157/3/2 158/3/2 160/3/2
f 160/3/2 158/3/2 161/3/2
f 159/1/2 160/1/2 163/1/2
f 163/1/2 160/1/2 164/1/2
f 161/1/2 162/1/2 165/1/2
f 165/1/2 162/1/2 166/1/2
f 167/1/2 168/1/2 171/1/2
f 171/1/2 168/1/2 172/1/2
f 169/1/2 170/1/2 173/1/2
f 173/1/2 170/1/2 174/1/2
f 172/3/2 173/3/2 175/3/2
f 175/3/2 173/3/2 176/3/2
f 177/3/2 178/3/2 180/3/2
f 180/3/2 178/3/2 181/3/2
f 179/1/2 180/1/2 183/1/2
f 183/1/2 180/1/2 184/1/2
f 181/1/2 182/1/2 185/1/2
f 185/1/2 182/1/2 186/1/2
f 184/3/2 185/3/2 187/3/2
f 187/3/2 185/3/2 188/3/2
f 189/3/2 190/3/2 191/3/2
f 191/3/2 190/3/2 192/3/2
f 196/1/3 194/1/3 193/1/3
f 197/1/3 194/1/3 196/1/3
f 198/1/3 194/1/3 197/1/3
f 201/1/3 196/1/3 195/1/3
f 201/1/3 197/1/3 196/1/3
f 202/2/3 198/2/3 197/2/3
f 202/1/3 197/1/3 201/1/3
f 203/2/3 198/2/3 202/2/3
f 205/1/3 201/1/3 200/1/3
f 205/1/3 202/1/3 201/1/3
f 205/1/3 203/1/3 202/1/3
f 206/2/3 198/2/3 203/2/3
f 206/1/3 203/1/3 205/1/3
f 207/1/3 199/1/3 198/1/3
f 207/2/3 198/2/3 206/2/3
f 209/1/3 206/1/3 205/1/3
f 209/1/3 205/1/3 204/1/3
f 209/1/3 207/1/3 206/1/3
f 210/1/3 199/1/3 207/1/3
f 210/1/3 207/1/3 209/1/3
f 211/1/3 199/1/3 210/1/3
f 213/1/3 209/1/3 208/1/3
f 213/1/3 210/1/3 209/1/3
f 214/1/3 210/1/3 213/1/3
f 215/1/3 210/1/3 214/1/3
f 216/1/3 213/1/3 212/1/3
f 216/1/3 214/1/3 213/1/3
f 217/1/3 214/1/3 216/1/3
f 218/1/3 214/1/3 217/1/3
f 220/1/3 219/1/3 218/1/3
f 220/1/3 218/1/3 217/1/3
f 221/1/3 219/1/3 220/1/3
f 222/1/3 219/1/3 221/1/3
f 224/1/3 222/1/3 221/1/3
f 224/1/3 223/1/3 222/1/3
f 225/1/3 223/1/3 224/1/3
f 226/1/3 223/1/3 225/1/3
f 227/1/3 223/1/3 226/1/3
f 228/1/3 223/1/3 227/1/3
f 229/1/3 223/1/3 228/1/3
f 230/1/3 223/1/3 229/1/3
f 231/1/3 223/1/3 230/1/3
f 232/1/3 230/1/3 229/1/3
f 233/1/3 230/1/3 232/1/3
f 237/3/3 235/3/3 234/3/3
f 238/3/3 235/3/3 237/3/3
f 241/3/3 237/3/3 236/3/3
f 242/3/3 237/3/3 241/3/3
f 243/3/3 239/3/3 238/3/3
f 244/3/3 239/3/3 243/3/3
f 247/3/3 241/3/3 240/3/3
f 248/3/3 241/3/3 247/3/3
f 250/3/3 247/3/3 246/3/3
f 251/3/3 247/3/3 250/3/3
f 253/3/3 250/3/3 249/3/3
f 254/3/3 250/3/3 253/3/3
f 256/3/3 245/3/3 244/3/3
f 257/3/3 245/3/3 256/3/3
f 259/3/3 253/3/3 252/3/3
f 260/3/3 253/3/3 259/3/3
f 262/3/3 256/3/3 255/3/3
f 263/3/3 256/3/3 262/3/3
f 264/3/3 259/3/3 258/3/3
f 265/3/3 259/3/3 264/3/3
f 267/3/3 262/3/3 261/3/3
f 268/3/3 262/3/3 267/3/3
f 270/3/3 266/3/3 265/3/3
f 271/3/3 266/3/3 270/3/3
f 273/3/3 269/3/3 268/3/3
f 274/3/3 269/3/3 273/3/3
f 276/3/3 272/3/3 271/3/3
f 277/3/3 272/3/3 276/3/3
f 279/3/3 278/3/3 277/3/3
f 280/3/3 278/3/3 279/3/3
f 282/3/3 281/3/3 280/3/3
f 283/3/3 281/3/3 282/3/3
f 286/3/3 275/3/3 274/3/3
f 287/3/3 275/3/3 286/3/3
f 288/3/3 284/3/3 283/3/3
f 289/3/3 284/3/3 288/3/3
f 290/3/3 286/3/3 285/3/3
f 291/3/3 286/3/3 290/3/3
f 292/3/3 290/3/3 289/3/3
f 293/3/3 290/3/3 292/3/3
f 294/3/4 295/3/4 297/3/4
f 297/3/4 295/3/4 298/3/4
f 296/3/4 297/3/4 301/3/4
f 301/3/4 297/3/4 302/3/4
f 298/3/4 299/3/4 303/3/4
f 303/3/4 299/3/4 304/3/4
f 300/3/4 301/3/4 307/3/4
f 307/3/4 301/3/4 308/3/4
f 306/3/4 307/3/4 310/3/4
f 310/3/4 307/3/4 311/3/4
f 309/3/4 310/3/4 313/3/4
f 313/3/4 310/3/4 314/3/4
f 304/3/4 305/3/4 316/3/4
f 316/3/4 305/3/4 317/3/4
f 312/3/4 313/3/4 319/3/4
f 319/3/4 313/3/4 320/3/4
f 315/3/4 316/3/4 322/3/4
f 322/3/4 316/3/4 323/3/4
f 318/3/4 319/3/4 324/3/4
f 324/3/4 319/3/4 325/3/4
f 321/3/4 322/3/4 327/3/4
f 327/3/4 322/3/4 328/3/4
f 325/3/4 326/3/4 330/3/4
f 330/3/4 326/3/4 331/3/4
f 328/3/4 329/3/4 333/3/4
f 333/3/4 329/3/4 334/3/4
f 331/3/4 332/3/4 336/3/4
f 336/3/4 332/3/4 337/3/4
f 337/3/4 338/3/4 339/3/4
f 339/3/4 338/3/4 340/3/4
f 340/3/4 341/3/4 342/3/4
f 342/3/4 341/3/4 343/3/4
f 334/3/4 335/3/4 346/3/4
f 346/3/4 335/3/4 347/3/4
f 343/3/4 344/3/4 348/3/4
f 348/3/4 344/3/4 349/3/4
f 345/3/4 346/3/4 350/3/4
f 350/3/4 346/3/4 351/3/4
f 349/3/4 350/3/4 352/3/4
f 352/3/4 350/3/4 353/3/4
f 354/1/4 355/1/4 357/1/4
f 357/1/4 355/1/4 358/1/4
f 356/1/4 357/1/4 361/1/4
f 358/1/4 359/1/4 361/1/4
f 357/1/4 358/1/4 361/1/4
f 360/1/4 361/1/4 363/1/4
f 362/1/4 363/1/4 365/1/4
f 361/1/4 359/1/4 366/1/4
f 363/1/4 361/1/4 366/1/4
f 365/1/4 363/1/4 366/1/4
f 366/1/4 359/1/4 367/1/4
f 364/1/4 365/1/4 369/1/4
f 365/1/4 366/1/4 369/1/4
f 369/1/4 366/1/4 370/1/4
f 370/1/4 366/1/4 371/1/4
f 368/1/4 369/1/4 372/1/4
f 369/1/4 370/1/4 372/1/4
f 372/1/4 370/1/4 373/1/4
f 373/1/4 370/1/4 374/1/4
f 374/1/4 375/1/4 376/1/4
f 373/1/4 374/1/4 376/1/4
f 376/1/4 375/1/4 377/1/4
f 377/1/4 375/1/4 378/1/4
f 377/1/4 378/1/4 380/1/4
f 378/1/4 379/1/4 380/1/4
f 380/1/4 379/1/4 381/1/4
f 381/1/4 379/1/4 382/1/4
f 382/1/4 379/1/4 383/1/4
f 381/1/4 382/1/4 384/1/4
f 384/1/4 382/1/4 385/1/4
f 385/1/4 382/1/4 386/1/4
f 382/2/4 383/2/4 387/2/4
f 386/1/4 382/1/4 387/1/4
f 385/1/4 386/1/4 388/1/4
f 388/1/4 386/1/4 389/1/4
f 386/2/4 387/2/4 390/2/4
f 389/1/4 386/1/4 390/1/4
f 383/1/4 379/1/4 391/1/4
f 390/2/4 387/2/4 391/2/4
f 387/2/4 383/2/4 391/2/4
f 391/1/4 379/1/4 392/1/4
f 389/1/4 390/1/4 393/1/4
f 390/1/4 391/1/4 393/1/4
f 393/1/4 391/1/4 394/1/4
f 397/3/5 396/3/5 395/3/5
f 398/3/5 396/3/5 397/3/5
f 402/1/5 400/1/5 399/1/5
f 403/1/5 400/1/5 402/1/5
f 405/3/5 402/3/5 401/3/5
f 406/3/5 402/3/5 405/3/5
f 407/3/5 404/3/5 403/3/5
f 408/3/5 404/3/5 407/3/5
f 409/1/5 407/1/5 406/1/5
f 410/1/5 407/1/5 409/1/5
f 416/1/5 412/1/5 411/1/5
f 417/1/5 412/1/5 416/1/5
f 418/1/5 414/1/5 413/1/5
f 419/1/5 414/1/5 418/1/5
f 421/3/5 416/3/5 415/3/5
f 422/3/5 416/3/5 421/3/5
f 425/3/5 420/3/5 419/3/5
f 426/3/5 420/3/5 425/3/5
f 427/1/5 423/1/5 422/1/5
f 428/1/5 423/1/5 427/1/5
f 429/1/5 425/1/5 424/1/5
f 430/1/5 425/1/5 429/1/5
f 436/1/5 432/1/5 431/1/5
f 437/1/5 432/1/5 436/1/5
f 438/1/5 434/1/5 433/1/5
f 439/1/5 434/1/5 438/1/5
f 441/3/5 436/3/5 435/3/5
f 442/3/5 436/3/5 441/3/5
f 445/3/5 440/3/5 439/3/5
f 446/3/5 440/3/5 445/3/5
f 447/1/5 443/1/5 442/1/5
f 448/1/5 443/1/5 447/1/5
f 449/1/5 445/1/5 444/1/5
f 450/1/5 445/1/5 449/1/5
f 456/1/5 452/1/5 451/1/5
f 457/1/5 452/1/5 456/1/5
f 458/1/5 454/1/5 453/1/5
f 459/1/5 454/1/5 458/1/5
f 461/3/5 456/3/5 455/3/5
f 462/3/5 456/3/5 461/3/5
f 465/3/5 460/3/5 459/3/5
f 466/3/5 460/3/5 465/3/5
f 467/1/5 463/1/5 462/1/5
f 468/1/5 463/1/5 467/1/5
f 469/1/5 465/1/5 464/1/5
f 470/1/5 465/1/5 469/1/5
f 476/1/5 472/1/5 471/1/5
f 477/1/5 472/1/5 476/1/5
f 478/1/5 474/1/5 473/1/5
f 479/1/5 474/1/5 478/1/5
f 481/3/5 476/3/5 475/3/5
f 482/3/5 476/3/5 481/3/5
f 485/3/5 480/3/5 479/3/5
f 486/3/5 480/3/5 485/3/5
f 487/1/5 483/1/5 482/1/5
f 488/1/5 483/1/5 487/1/5
f 489/1/5 485/1/5 484/1/5
f 490/1/5 485/1/5 489/1/5
f 496/1/5 492/1/5 491/1/5
f 497/1/5 492/1/5 496/1/5
f 498/1/5 494/1/5 493/1/5
f 499/1/5 494/1/5 498/1/5
f 501/3/5 496/3/5 495/3/5
f 502/3/5 496/3/5 501/3/5
f 505/3/5 500/3/5 499/3/5
f 506/3/5 500/3/5 505/3/5
f 507/1/5 503/1/5 502/1/5
f 508/1/5 503/1/5 507/1/5
f 509/1/5 505/1/5 504/1/5
f 510/1/5 505/1/5 509/1/5
f 511/1/6 512/1/6 513/1/6
f 513/1/6 512/1/6 514/1/6
f 515/1/6 516/1/6 517/1/6
f 517/1/6 516/1/6 518/1/6
f 519/1/6 520/1/6 528/1/6
f 528/1/6 520/1/6 529/1/6
f 521/1/6 522/1/6 530/1/6
f 530/1/6 522/1/6 531/1/6
f 523/1/6 524/1/6 532/1/6
f 532/1/6 524/1/6 533/1/6
f 525/1/6 526/1/6 534/1/6
f 534/1/6 526/1/6 535/1/6
f 527/3/6 528/3/6 537/3/6
f 537/3/6 528/3/6 538/3/6
f 531/3/6 532/3/6 541/3/6
f 541/3/6 532/3/6 542/3/6
f 535/3/6 536/3/6 545/3/6
f 545/3/6 536/3/6 546/3/6
f 538/1/6 539/1/6 547/1/6
f 547/1/6 539/1/6 548/1/6
f 540/1/6 541/1/6 549/1/6
f 549/1/6 541/1/6 550/1/6
f 542/1/6 543/1/6 551/1/6
f 551/1/6 543/1/6 552/1/6
f 544/1/6 545/1/6 553/1/6
f 553/1/6 545/1/6 554/1/6
f 555/1/6 556/1/6 560/1/6
f 560/1/6 556/1/6 561/1/6
f 557/1/6 558/1/6 564/1/6
f 564/1/6 558/1/6 565/1/6
f 559/3/6 560/3/6 567/3/6
f 567/3/6 560/3/6 568/3/6
f 561/3/6 562/3/6 569/3/6
f 569/3/6 562/3/6 570/3/6
f 563/3/6 564/3/6 571/3/6
f 571/3/6 564/3/6 572/3/6
f 565/3/6 566/3/6 573/3/6
f 573/3/6 566/3/6 574/3/6
f 568/1/6 569/1/6 575/1/6
f 575/1/6 569/1/6 576/1/6
f 572/1/6 573/1/6 577/1/6
f 577/1/6 573/1/6 578/1/6
f 579/3/6 580/3/6 583/3/6
f 583/3/6 580/3/6 584/3/6
f 581/3/6 582/3/6 585/3/6
f 585/3/6 582/3/6 586/3/6
